<mxfile host="app.diagrams.net" modified="2023-02-27T22:36:44.022Z" agent="5.0 (Windows NT 10.0; Win64; x64) AppleWebKit/537.36 (KHTML, like Gecko) Chrome/110.0.0.0 Safari/537.36 Edg/110.0.1587.56" etag="UwgZB6iLGtbH82JaZ4wt" version="20.8.20" type="github" pages="6">
  <diagram id="R2lEEEUBdFMjLlhIrx00" name="Diagrama relacional">
    <mxGraphModel dx="880" dy="476" grid="1" gridSize="10" guides="1" tooltips="1" connect="1" arrows="1" fold="1" page="1" pageScale="1" pageWidth="850" pageHeight="1100" math="0" shadow="0" extFonts="Permanent Marker^https://fonts.googleapis.com/css?family=Permanent+Marker">
      <root>
        <mxCell id="0" />
        <mxCell id="1" parent="0" />
        <mxCell id="ee2IhAGhDenbNyClMT5V-12" value="Usuario" style="shape=table;startSize=30;container=1;collapsible=1;childLayout=tableLayout;fixedRows=1;rowLines=0;fontStyle=1;align=center;resizeLast=1;dashed=1;fontSize=15;html=1;" parent="1" vertex="1">
          <mxGeometry x="130" y="150" width="210" height="310" as="geometry" />
        </mxCell>
        <mxCell id="ee2IhAGhDenbNyClMT5V-13" value="" style="shape=tableRow;horizontal=0;startSize=0;swimlaneHead=0;swimlaneBody=0;fillColor=none;collapsible=0;dropTarget=0;points=[[0,0.5],[1,0.5]];portConstraint=eastwest;top=0;left=0;right=0;bottom=1;dashed=1;fontSize=15;html=1;" parent="ee2IhAGhDenbNyClMT5V-12" vertex="1">
          <mxGeometry y="30" width="210" height="30" as="geometry" />
        </mxCell>
        <mxCell id="ee2IhAGhDenbNyClMT5V-14" value="PK" style="shape=partialRectangle;connectable=0;fillColor=none;top=0;left=0;bottom=0;right=0;fontStyle=1;overflow=hidden;dashed=1;fontSize=15;html=1;" parent="ee2IhAGhDenbNyClMT5V-13" vertex="1">
          <mxGeometry width="30" height="30" as="geometry">
            <mxRectangle width="30" height="30" as="alternateBounds" />
          </mxGeometry>
        </mxCell>
        <mxCell id="ee2IhAGhDenbNyClMT5V-15" value="id_usuario" style="shape=partialRectangle;connectable=0;fillColor=none;top=0;left=0;bottom=0;right=0;align=left;spacingLeft=6;fontStyle=5;overflow=hidden;dashed=1;fontSize=15;html=1;" parent="ee2IhAGhDenbNyClMT5V-13" vertex="1">
          <mxGeometry x="30" width="180" height="30" as="geometry">
            <mxRectangle width="180" height="30" as="alternateBounds" />
          </mxGeometry>
        </mxCell>
        <mxCell id="ee2IhAGhDenbNyClMT5V-41" style="shape=tableRow;horizontal=0;startSize=0;swimlaneHead=0;swimlaneBody=0;fillColor=none;collapsible=0;dropTarget=0;points=[[0,0.5],[1,0.5]];portConstraint=eastwest;top=0;left=0;right=0;bottom=0;dashed=1;fontSize=15;html=1;" parent="ee2IhAGhDenbNyClMT5V-12" vertex="1">
          <mxGeometry y="60" width="210" height="30" as="geometry" />
        </mxCell>
        <mxCell id="ee2IhAGhDenbNyClMT5V-42" value="FK" style="shape=partialRectangle;connectable=0;fillColor=none;top=0;left=0;bottom=0;right=0;editable=1;overflow=hidden;dashed=1;fontSize=15;html=1;" parent="ee2IhAGhDenbNyClMT5V-41" vertex="1">
          <mxGeometry width="30" height="30" as="geometry">
            <mxRectangle width="30" height="30" as="alternateBounds" />
          </mxGeometry>
        </mxCell>
        <mxCell id="ee2IhAGhDenbNyClMT5V-43" value="id_telefono" style="shape=partialRectangle;connectable=0;fillColor=none;top=0;left=0;bottom=0;right=0;align=left;spacingLeft=6;overflow=hidden;dashed=1;fontSize=15;html=1;" parent="ee2IhAGhDenbNyClMT5V-41" vertex="1">
          <mxGeometry x="30" width="180" height="30" as="geometry">
            <mxRectangle width="180" height="30" as="alternateBounds" />
          </mxGeometry>
        </mxCell>
        <mxCell id="ee2IhAGhDenbNyClMT5V-16" value="" style="shape=tableRow;horizontal=0;startSize=0;swimlaneHead=0;swimlaneBody=0;fillColor=none;collapsible=0;dropTarget=0;points=[[0,0.5],[1,0.5]];portConstraint=eastwest;top=0;left=0;right=0;bottom=0;dashed=1;fontSize=15;html=1;" parent="ee2IhAGhDenbNyClMT5V-12" vertex="1">
          <mxGeometry y="90" width="210" height="30" as="geometry" />
        </mxCell>
        <mxCell id="ee2IhAGhDenbNyClMT5V-17" value="" style="shape=partialRectangle;connectable=0;fillColor=none;top=0;left=0;bottom=0;right=0;editable=1;overflow=hidden;dashed=1;fontSize=15;html=1;" parent="ee2IhAGhDenbNyClMT5V-16" vertex="1">
          <mxGeometry width="30" height="30" as="geometry">
            <mxRectangle width="30" height="30" as="alternateBounds" />
          </mxGeometry>
        </mxCell>
        <mxCell id="ee2IhAGhDenbNyClMT5V-18" value="nombres_usuario" style="shape=partialRectangle;connectable=0;fillColor=none;top=0;left=0;bottom=0;right=0;align=left;spacingLeft=6;overflow=hidden;dashed=1;fontSize=15;html=1;" parent="ee2IhAGhDenbNyClMT5V-16" vertex="1">
          <mxGeometry x="30" width="180" height="30" as="geometry">
            <mxRectangle width="180" height="30" as="alternateBounds" />
          </mxGeometry>
        </mxCell>
        <mxCell id="ee2IhAGhDenbNyClMT5V-19" value="" style="shape=tableRow;horizontal=0;startSize=0;swimlaneHead=0;swimlaneBody=0;fillColor=none;collapsible=0;dropTarget=0;points=[[0,0.5],[1,0.5]];portConstraint=eastwest;top=0;left=0;right=0;bottom=0;dashed=1;fontSize=15;html=1;" parent="ee2IhAGhDenbNyClMT5V-12" vertex="1">
          <mxGeometry y="120" width="210" height="30" as="geometry" />
        </mxCell>
        <mxCell id="ee2IhAGhDenbNyClMT5V-20" value="" style="shape=partialRectangle;connectable=0;fillColor=none;top=0;left=0;bottom=0;right=0;editable=1;overflow=hidden;dashed=1;fontSize=15;html=1;" parent="ee2IhAGhDenbNyClMT5V-19" vertex="1">
          <mxGeometry width="30" height="30" as="geometry">
            <mxRectangle width="30" height="30" as="alternateBounds" />
          </mxGeometry>
        </mxCell>
        <mxCell id="ee2IhAGhDenbNyClMT5V-21" value="apellidos_usuario" style="shape=partialRectangle;connectable=0;fillColor=none;top=0;left=0;bottom=0;right=0;align=left;spacingLeft=6;overflow=hidden;dashed=1;fontSize=15;html=1;" parent="ee2IhAGhDenbNyClMT5V-19" vertex="1">
          <mxGeometry x="30" width="180" height="30" as="geometry">
            <mxRectangle width="180" height="30" as="alternateBounds" />
          </mxGeometry>
        </mxCell>
        <mxCell id="ee2IhAGhDenbNyClMT5V-22" value="" style="shape=tableRow;horizontal=0;startSize=0;swimlaneHead=0;swimlaneBody=0;fillColor=none;collapsible=0;dropTarget=0;points=[[0,0.5],[1,0.5]];portConstraint=eastwest;top=0;left=0;right=0;bottom=0;dashed=1;fontSize=15;html=1;" parent="ee2IhAGhDenbNyClMT5V-12" vertex="1">
          <mxGeometry y="150" width="210" height="30" as="geometry" />
        </mxCell>
        <mxCell id="ee2IhAGhDenbNyClMT5V-23" value="" style="shape=partialRectangle;connectable=0;fillColor=none;top=0;left=0;bottom=0;right=0;editable=1;overflow=hidden;dashed=1;fontSize=15;html=1;" parent="ee2IhAGhDenbNyClMT5V-22" vertex="1">
          <mxGeometry width="30" height="30" as="geometry">
            <mxRectangle width="30" height="30" as="alternateBounds" />
          </mxGeometry>
        </mxCell>
        <mxCell id="ee2IhAGhDenbNyClMT5V-24" value="login_usuario" style="shape=partialRectangle;connectable=0;fillColor=none;top=0;left=0;bottom=0;right=0;align=left;spacingLeft=6;overflow=hidden;dashed=1;fontSize=15;html=1;" parent="ee2IhAGhDenbNyClMT5V-22" vertex="1">
          <mxGeometry x="30" width="180" height="30" as="geometry">
            <mxRectangle width="180" height="30" as="alternateBounds" />
          </mxGeometry>
        </mxCell>
        <mxCell id="ee2IhAGhDenbNyClMT5V-32" style="shape=tableRow;horizontal=0;startSize=0;swimlaneHead=0;swimlaneBody=0;fillColor=none;collapsible=0;dropTarget=0;points=[[0,0.5],[1,0.5]];portConstraint=eastwest;top=0;left=0;right=0;bottom=0;dashed=1;fontSize=15;html=1;" parent="ee2IhAGhDenbNyClMT5V-12" vertex="1">
          <mxGeometry y="180" width="210" height="30" as="geometry" />
        </mxCell>
        <mxCell id="ee2IhAGhDenbNyClMT5V-33" style="shape=partialRectangle;connectable=0;fillColor=none;top=0;left=0;bottom=0;right=0;editable=1;overflow=hidden;dashed=1;fontSize=15;html=1;" parent="ee2IhAGhDenbNyClMT5V-32" vertex="1">
          <mxGeometry width="30" height="30" as="geometry">
            <mxRectangle width="30" height="30" as="alternateBounds" />
          </mxGeometry>
        </mxCell>
        <mxCell id="ee2IhAGhDenbNyClMT5V-34" value="password_usuario" style="shape=partialRectangle;connectable=0;fillColor=none;top=0;left=0;bottom=0;right=0;align=left;spacingLeft=6;overflow=hidden;dashed=1;fontSize=15;html=1;" parent="ee2IhAGhDenbNyClMT5V-32" vertex="1">
          <mxGeometry x="30" width="180" height="30" as="geometry">
            <mxRectangle width="180" height="30" as="alternateBounds" />
          </mxGeometry>
        </mxCell>
        <mxCell id="ee2IhAGhDenbNyClMT5V-35" style="shape=tableRow;horizontal=0;startSize=0;swimlaneHead=0;swimlaneBody=0;fillColor=none;collapsible=0;dropTarget=0;points=[[0,0.5],[1,0.5]];portConstraint=eastwest;top=0;left=0;right=0;bottom=0;dashed=1;fontSize=15;html=1;" parent="ee2IhAGhDenbNyClMT5V-12" vertex="1">
          <mxGeometry y="210" width="210" height="30" as="geometry" />
        </mxCell>
        <mxCell id="ee2IhAGhDenbNyClMT5V-36" style="shape=partialRectangle;connectable=0;fillColor=none;top=0;left=0;bottom=0;right=0;editable=1;overflow=hidden;dashed=1;fontSize=15;html=1;" parent="ee2IhAGhDenbNyClMT5V-35" vertex="1">
          <mxGeometry width="30" height="30" as="geometry">
            <mxRectangle width="30" height="30" as="alternateBounds" />
          </mxGeometry>
        </mxCell>
        <mxCell id="ee2IhAGhDenbNyClMT5V-37" value="&lt;div&gt;correo_usuario&lt;/div&gt;" style="shape=partialRectangle;connectable=0;fillColor=none;top=0;left=0;bottom=0;right=0;align=left;spacingLeft=6;overflow=hidden;dashed=1;fontSize=15;html=1;" parent="ee2IhAGhDenbNyClMT5V-35" vertex="1">
          <mxGeometry x="30" width="180" height="30" as="geometry">
            <mxRectangle width="180" height="30" as="alternateBounds" />
          </mxGeometry>
        </mxCell>
        <mxCell id="ee2IhAGhDenbNyClMT5V-38" style="shape=tableRow;horizontal=0;startSize=0;swimlaneHead=0;swimlaneBody=0;fillColor=none;collapsible=0;dropTarget=0;points=[[0,0.5],[1,0.5]];portConstraint=eastwest;top=0;left=0;right=0;bottom=0;dashed=1;fontSize=15;html=1;" parent="ee2IhAGhDenbNyClMT5V-12" vertex="1">
          <mxGeometry y="240" width="210" height="30" as="geometry" />
        </mxCell>
        <mxCell id="ee2IhAGhDenbNyClMT5V-39" style="shape=partialRectangle;connectable=0;fillColor=none;top=0;left=0;bottom=0;right=0;editable=1;overflow=hidden;dashed=1;fontSize=15;html=1;" parent="ee2IhAGhDenbNyClMT5V-38" vertex="1">
          <mxGeometry width="30" height="30" as="geometry">
            <mxRectangle width="30" height="30" as="alternateBounds" />
          </mxGeometry>
        </mxCell>
        <mxCell id="ee2IhAGhDenbNyClMT5V-40" value="tarjetaProf_usuario" style="shape=partialRectangle;connectable=0;fillColor=none;top=0;left=0;bottom=0;right=0;align=left;spacingLeft=6;overflow=hidden;dashed=1;fontSize=15;html=1;" parent="ee2IhAGhDenbNyClMT5V-38" vertex="1">
          <mxGeometry x="30" width="180" height="30" as="geometry">
            <mxRectangle width="180" height="30" as="alternateBounds" />
          </mxGeometry>
        </mxCell>
        <mxCell id="ee2IhAGhDenbNyClMT5V-44" style="shape=tableRow;horizontal=0;startSize=0;swimlaneHead=0;swimlaneBody=0;fillColor=none;collapsible=0;dropTarget=0;points=[[0,0.5],[1,0.5]];portConstraint=eastwest;top=0;left=0;right=0;bottom=0;dashed=1;fontSize=15;html=1;" parent="ee2IhAGhDenbNyClMT5V-12" vertex="1">
          <mxGeometry y="270" width="210" height="30" as="geometry" />
        </mxCell>
        <mxCell id="ee2IhAGhDenbNyClMT5V-45" style="shape=partialRectangle;connectable=0;fillColor=none;top=0;left=0;bottom=0;right=0;editable=1;overflow=hidden;dashed=1;fontSize=15;html=1;" parent="ee2IhAGhDenbNyClMT5V-44" vertex="1">
          <mxGeometry width="30" height="30" as="geometry">
            <mxRectangle width="30" height="30" as="alternateBounds" />
          </mxGeometry>
        </mxCell>
        <mxCell id="ee2IhAGhDenbNyClMT5V-46" value="reTHUS_usuario" style="shape=partialRectangle;connectable=0;fillColor=none;top=0;left=0;bottom=0;right=0;align=left;spacingLeft=6;overflow=hidden;dashed=1;fontSize=15;html=1;" parent="ee2IhAGhDenbNyClMT5V-44" vertex="1">
          <mxGeometry x="30" width="180" height="30" as="geometry">
            <mxRectangle width="180" height="30" as="alternateBounds" />
          </mxGeometry>
        </mxCell>
        <mxCell id="ee2IhAGhDenbNyClMT5V-25" value="" style="shape=tableRow;horizontal=0;startSize=0;swimlaneHead=0;swimlaneBody=0;fillColor=none;collapsible=0;dropTarget=0;points=[[0,0.5],[1,0.5]];portConstraint=eastwest;top=0;left=0;right=0;bottom=0;dashed=1;fontSize=15;html=1;" parent="1" vertex="1">
          <mxGeometry x="270" y="290" width="210" height="30" as="geometry" />
        </mxCell>
        <mxCell id="ee2IhAGhDenbNyClMT5V-26" value="" style="shape=partialRectangle;connectable=0;fillColor=none;top=0;left=0;bottom=0;right=0;editable=1;overflow=hidden;dashed=1;fontSize=15;html=1;" parent="ee2IhAGhDenbNyClMT5V-25" vertex="1">
          <mxGeometry width="30" height="30" as="geometry">
            <mxRectangle width="30" height="30" as="alternateBounds" />
          </mxGeometry>
        </mxCell>
        <mxCell id="TGQOu_SkaZhyXz0knh_N-1" value="Usuario_Rol" style="shape=table;startSize=30;container=1;collapsible=1;childLayout=tableLayout;fixedRows=1;rowLines=0;fontStyle=1;align=center;resizeLast=1;dashed=1;fontSize=15;html=1;" parent="1" vertex="1">
          <mxGeometry x="570" y="150" width="210" height="100" as="geometry" />
        </mxCell>
        <mxCell id="TGQOu_SkaZhyXz0knh_N-5" value="" style="shape=tableRow;horizontal=0;startSize=0;swimlaneHead=0;swimlaneBody=0;fillColor=none;collapsible=0;dropTarget=0;points=[[0,0.5],[1,0.5]];portConstraint=eastwest;top=0;left=0;right=0;bottom=0;dashed=1;fontSize=15;html=1;" parent="TGQOu_SkaZhyXz0knh_N-1" vertex="1">
          <mxGeometry y="30" width="210" height="30" as="geometry" />
        </mxCell>
        <mxCell id="TGQOu_SkaZhyXz0knh_N-6" value="FK" style="shape=partialRectangle;connectable=0;fillColor=none;top=0;left=0;bottom=0;right=0;editable=1;overflow=hidden;dashed=1;fontSize=15;html=1;" parent="TGQOu_SkaZhyXz0knh_N-5" vertex="1">
          <mxGeometry width="30" height="30" as="geometry">
            <mxRectangle width="30" height="30" as="alternateBounds" />
          </mxGeometry>
        </mxCell>
        <mxCell id="TGQOu_SkaZhyXz0knh_N-7" value="id_usuario" style="shape=partialRectangle;connectable=0;fillColor=none;top=0;left=0;bottom=0;right=0;align=left;spacingLeft=6;overflow=hidden;dashed=1;fontSize=15;html=1;" parent="TGQOu_SkaZhyXz0knh_N-5" vertex="1">
          <mxGeometry x="30" width="180" height="30" as="geometry">
            <mxRectangle width="180" height="30" as="alternateBounds" />
          </mxGeometry>
        </mxCell>
        <mxCell id="TGQOu_SkaZhyXz0knh_N-8" value="" style="shape=tableRow;horizontal=0;startSize=0;swimlaneHead=0;swimlaneBody=0;fillColor=none;collapsible=0;dropTarget=0;points=[[0,0.5],[1,0.5]];portConstraint=eastwest;top=0;left=0;right=0;bottom=0;dashed=1;fontSize=15;html=1;" parent="TGQOu_SkaZhyXz0knh_N-1" vertex="1">
          <mxGeometry y="60" width="210" height="30" as="geometry" />
        </mxCell>
        <mxCell id="TGQOu_SkaZhyXz0knh_N-9" value="FK" style="shape=partialRectangle;connectable=0;fillColor=none;top=0;left=0;bottom=0;right=0;editable=1;overflow=hidden;dashed=1;fontSize=15;html=1;" parent="TGQOu_SkaZhyXz0knh_N-8" vertex="1">
          <mxGeometry width="30" height="30" as="geometry">
            <mxRectangle width="30" height="30" as="alternateBounds" />
          </mxGeometry>
        </mxCell>
        <mxCell id="TGQOu_SkaZhyXz0knh_N-10" value="id_rol" style="shape=partialRectangle;connectable=0;fillColor=none;top=0;left=0;bottom=0;right=0;align=left;spacingLeft=6;overflow=hidden;dashed=1;fontSize=15;html=1;" parent="TGQOu_SkaZhyXz0knh_N-8" vertex="1">
          <mxGeometry x="30" width="180" height="30" as="geometry">
            <mxRectangle width="180" height="30" as="alternateBounds" />
          </mxGeometry>
        </mxCell>
        <mxCell id="TGQOu_SkaZhyXz0knh_N-29" value="Rol" style="shape=table;startSize=30;container=1;collapsible=1;childLayout=tableLayout;fixedRows=1;rowLines=0;fontStyle=1;align=center;resizeLast=1;dashed=1;fontSize=15;html=1;" parent="1" vertex="1">
          <mxGeometry x="960" y="160" width="210" height="100" as="geometry" />
        </mxCell>
        <mxCell id="TGQOu_SkaZhyXz0knh_N-30" value="" style="shape=tableRow;horizontal=0;startSize=0;swimlaneHead=0;swimlaneBody=0;fillColor=none;collapsible=0;dropTarget=0;points=[[0,0.5],[1,0.5]];portConstraint=eastwest;top=0;left=0;right=0;bottom=0;dashed=1;fontSize=15;html=1;" parent="TGQOu_SkaZhyXz0knh_N-29" vertex="1">
          <mxGeometry y="30" width="210" height="30" as="geometry" />
        </mxCell>
        <mxCell id="TGQOu_SkaZhyXz0knh_N-31" value="&lt;b&gt;PK&lt;/b&gt;" style="shape=partialRectangle;connectable=0;fillColor=none;top=0;left=0;bottom=0;right=0;editable=1;overflow=hidden;dashed=1;fontSize=15;html=1;" parent="TGQOu_SkaZhyXz0knh_N-30" vertex="1">
          <mxGeometry width="30" height="30" as="geometry">
            <mxRectangle width="30" height="30" as="alternateBounds" />
          </mxGeometry>
        </mxCell>
        <mxCell id="TGQOu_SkaZhyXz0knh_N-32" value="&lt;b&gt;id_rol&lt;/b&gt;" style="shape=partialRectangle;connectable=0;fillColor=none;top=0;left=0;bottom=0;right=0;align=left;spacingLeft=6;overflow=hidden;dashed=1;fontSize=15;html=1;" parent="TGQOu_SkaZhyXz0knh_N-30" vertex="1">
          <mxGeometry x="30" width="180" height="30" as="geometry">
            <mxRectangle width="180" height="30" as="alternateBounds" />
          </mxGeometry>
        </mxCell>
        <mxCell id="TGQOu_SkaZhyXz0knh_N-33" value="" style="shape=tableRow;horizontal=0;startSize=0;swimlaneHead=0;swimlaneBody=0;fillColor=none;collapsible=0;dropTarget=0;points=[[0,0.5],[1,0.5]];portConstraint=eastwest;top=0;left=0;right=0;bottom=0;dashed=1;fontSize=15;html=1;" parent="TGQOu_SkaZhyXz0knh_N-29" vertex="1">
          <mxGeometry y="60" width="210" height="30" as="geometry" />
        </mxCell>
        <mxCell id="TGQOu_SkaZhyXz0knh_N-34" value="" style="shape=partialRectangle;connectable=0;fillColor=none;top=0;left=0;bottom=0;right=0;editable=1;overflow=hidden;dashed=1;fontSize=15;html=1;" parent="TGQOu_SkaZhyXz0knh_N-33" vertex="1">
          <mxGeometry width="30" height="30" as="geometry">
            <mxRectangle width="30" height="30" as="alternateBounds" />
          </mxGeometry>
        </mxCell>
        <mxCell id="TGQOu_SkaZhyXz0knh_N-35" value="tipo" style="shape=partialRectangle;connectable=0;fillColor=none;top=0;left=0;bottom=0;right=0;align=left;spacingLeft=6;overflow=hidden;dashed=1;fontSize=15;html=1;" parent="TGQOu_SkaZhyXz0knh_N-33" vertex="1">
          <mxGeometry x="30" width="180" height="30" as="geometry">
            <mxRectangle width="180" height="30" as="alternateBounds" />
          </mxGeometry>
        </mxCell>
        <mxCell id="TGQOu_SkaZhyXz0knh_N-36" value="Consulta" style="shape=table;startSize=30;container=1;collapsible=1;childLayout=tableLayout;fixedRows=1;rowLines=0;fontStyle=1;align=center;resizeLast=1;dashed=1;fontSize=15;html=1;" parent="1" vertex="1">
          <mxGeometry x="160" y="540" width="270" height="460" as="geometry" />
        </mxCell>
        <mxCell id="TGQOu_SkaZhyXz0knh_N-37" value="" style="shape=tableRow;horizontal=0;startSize=0;swimlaneHead=0;swimlaneBody=0;fillColor=none;collapsible=0;dropTarget=0;points=[[0,0.5],[1,0.5]];portConstraint=eastwest;top=0;left=0;right=0;bottom=1;dashed=1;fontSize=15;html=1;" parent="TGQOu_SkaZhyXz0knh_N-36" vertex="1">
          <mxGeometry y="30" width="270" height="30" as="geometry" />
        </mxCell>
        <mxCell id="TGQOu_SkaZhyXz0knh_N-38" value="PK" style="shape=partialRectangle;connectable=0;fillColor=none;top=0;left=0;bottom=0;right=0;fontStyle=1;overflow=hidden;dashed=1;fontSize=15;html=1;" parent="TGQOu_SkaZhyXz0knh_N-37" vertex="1">
          <mxGeometry width="30" height="30" as="geometry">
            <mxRectangle width="30" height="30" as="alternateBounds" />
          </mxGeometry>
        </mxCell>
        <mxCell id="TGQOu_SkaZhyXz0knh_N-39" value="id_consulta" style="shape=partialRectangle;connectable=0;fillColor=none;top=0;left=0;bottom=0;right=0;align=left;spacingLeft=6;fontStyle=5;overflow=hidden;dashed=1;fontSize=15;html=1;" parent="TGQOu_SkaZhyXz0knh_N-37" vertex="1">
          <mxGeometry x="30" width="240" height="30" as="geometry">
            <mxRectangle width="240" height="30" as="alternateBounds" />
          </mxGeometry>
        </mxCell>
        <mxCell id="TGQOu_SkaZhyXz0knh_N-40" value="" style="shape=tableRow;horizontal=0;startSize=0;swimlaneHead=0;swimlaneBody=0;fillColor=none;collapsible=0;dropTarget=0;points=[[0,0.5],[1,0.5]];portConstraint=eastwest;top=0;left=0;right=0;bottom=0;dashed=1;fontSize=15;html=1;" parent="TGQOu_SkaZhyXz0knh_N-36" vertex="1">
          <mxGeometry y="60" width="270" height="30" as="geometry" />
        </mxCell>
        <mxCell id="TGQOu_SkaZhyXz0knh_N-41" value="FK" style="shape=partialRectangle;connectable=0;fillColor=none;top=0;left=0;bottom=0;right=0;editable=1;overflow=hidden;dashed=1;fontSize=15;html=1;" parent="TGQOu_SkaZhyXz0knh_N-40" vertex="1">
          <mxGeometry width="30" height="30" as="geometry">
            <mxRectangle width="30" height="30" as="alternateBounds" />
          </mxGeometry>
        </mxCell>
        <mxCell id="TGQOu_SkaZhyXz0knh_N-42" value="id_usuario" style="shape=partialRectangle;connectable=0;fillColor=none;top=0;left=0;bottom=0;right=0;align=left;spacingLeft=6;overflow=hidden;dashed=1;fontSize=15;html=1;" parent="TGQOu_SkaZhyXz0knh_N-40" vertex="1">
          <mxGeometry x="30" width="240" height="30" as="geometry">
            <mxRectangle width="240" height="30" as="alternateBounds" />
          </mxGeometry>
        </mxCell>
        <mxCell id="TGQOu_SkaZhyXz0knh_N-43" value="" style="shape=tableRow;horizontal=0;startSize=0;swimlaneHead=0;swimlaneBody=0;fillColor=none;collapsible=0;dropTarget=0;points=[[0,0.5],[1,0.5]];portConstraint=eastwest;top=0;left=0;right=0;bottom=0;dashed=1;fontSize=15;html=1;" parent="TGQOu_SkaZhyXz0knh_N-36" vertex="1">
          <mxGeometry y="90" width="270" height="30" as="geometry" />
        </mxCell>
        <mxCell id="TGQOu_SkaZhyXz0knh_N-44" value="FK" style="shape=partialRectangle;connectable=0;fillColor=none;top=0;left=0;bottom=0;right=0;editable=1;overflow=hidden;dashed=1;fontSize=15;html=1;" parent="TGQOu_SkaZhyXz0knh_N-43" vertex="1">
          <mxGeometry width="30" height="30" as="geometry">
            <mxRectangle width="30" height="30" as="alternateBounds" />
          </mxGeometry>
        </mxCell>
        <mxCell id="TGQOu_SkaZhyXz0knh_N-45" value="id_consultante" style="shape=partialRectangle;connectable=0;fillColor=none;top=0;left=0;bottom=0;right=0;align=left;spacingLeft=6;overflow=hidden;dashed=1;fontSize=15;html=1;" parent="TGQOu_SkaZhyXz0knh_N-43" vertex="1">
          <mxGeometry x="30" width="240" height="30" as="geometry">
            <mxRectangle width="240" height="30" as="alternateBounds" />
          </mxGeometry>
        </mxCell>
        <mxCell id="TGQOu_SkaZhyXz0knh_N-46" value="" style="shape=tableRow;horizontal=0;startSize=0;swimlaneHead=0;swimlaneBody=0;fillColor=none;collapsible=0;dropTarget=0;points=[[0,0.5],[1,0.5]];portConstraint=eastwest;top=0;left=0;right=0;bottom=0;dashed=1;fontSize=15;html=1;" parent="TGQOu_SkaZhyXz0knh_N-36" vertex="1">
          <mxGeometry y="120" width="270" height="30" as="geometry" />
        </mxCell>
        <mxCell id="TGQOu_SkaZhyXz0knh_N-47" value="FK" style="shape=partialRectangle;connectable=0;fillColor=none;top=0;left=0;bottom=0;right=0;editable=1;overflow=hidden;dashed=1;fontSize=15;html=1;" parent="TGQOu_SkaZhyXz0knh_N-46" vertex="1">
          <mxGeometry width="30" height="30" as="geometry">
            <mxRectangle width="30" height="30" as="alternateBounds" />
          </mxGeometry>
        </mxCell>
        <mxCell id="TGQOu_SkaZhyXz0knh_N-48" value="id_fechaConsulta" style="shape=partialRectangle;connectable=0;fillColor=none;top=0;left=0;bottom=0;right=0;align=left;spacingLeft=6;overflow=hidden;dashed=1;fontSize=15;html=1;" parent="TGQOu_SkaZhyXz0knh_N-46" vertex="1">
          <mxGeometry x="30" width="240" height="30" as="geometry">
            <mxRectangle width="240" height="30" as="alternateBounds" />
          </mxGeometry>
        </mxCell>
        <mxCell id="TGQOu_SkaZhyXz0knh_N-49" style="shape=tableRow;horizontal=0;startSize=0;swimlaneHead=0;swimlaneBody=0;fillColor=none;collapsible=0;dropTarget=0;points=[[0,0.5],[1,0.5]];portConstraint=eastwest;top=0;left=0;right=0;bottom=0;dashed=1;fontSize=15;html=1;" parent="TGQOu_SkaZhyXz0knh_N-36" vertex="1">
          <mxGeometry y="150" width="270" height="30" as="geometry" />
        </mxCell>
        <mxCell id="TGQOu_SkaZhyXz0knh_N-50" style="shape=partialRectangle;connectable=0;fillColor=none;top=0;left=0;bottom=0;right=0;editable=1;overflow=hidden;dashed=1;fontSize=15;html=1;" parent="TGQOu_SkaZhyXz0knh_N-49" vertex="1">
          <mxGeometry width="30" height="30" as="geometry">
            <mxRectangle width="30" height="30" as="alternateBounds" />
          </mxGeometry>
        </mxCell>
        <mxCell id="TGQOu_SkaZhyXz0knh_N-51" value="motivo_consulta" style="shape=partialRectangle;connectable=0;fillColor=none;top=0;left=0;bottom=0;right=0;align=left;spacingLeft=6;overflow=hidden;dashed=1;fontSize=15;html=1;" parent="TGQOu_SkaZhyXz0knh_N-49" vertex="1">
          <mxGeometry x="30" width="240" height="30" as="geometry">
            <mxRectangle width="240" height="30" as="alternateBounds" />
          </mxGeometry>
        </mxCell>
        <mxCell id="TGQOu_SkaZhyXz0knh_N-52" style="shape=tableRow;horizontal=0;startSize=0;swimlaneHead=0;swimlaneBody=0;fillColor=none;collapsible=0;dropTarget=0;points=[[0,0.5],[1,0.5]];portConstraint=eastwest;top=0;left=0;right=0;bottom=0;dashed=1;fontSize=15;html=1;" parent="TGQOu_SkaZhyXz0knh_N-36" vertex="1">
          <mxGeometry y="180" width="270" height="30" as="geometry" />
        </mxCell>
        <mxCell id="TGQOu_SkaZhyXz0knh_N-53" style="shape=partialRectangle;connectable=0;fillColor=none;top=0;left=0;bottom=0;right=0;editable=1;overflow=hidden;dashed=1;fontSize=15;html=1;" parent="TGQOu_SkaZhyXz0knh_N-52" vertex="1">
          <mxGeometry width="30" height="30" as="geometry">
            <mxRectangle width="30" height="30" as="alternateBounds" />
          </mxGeometry>
        </mxCell>
        <mxCell id="TGQOu_SkaZhyXz0knh_N-54" value="hProblemaActual_consulta" style="shape=partialRectangle;connectable=0;fillColor=none;top=0;left=0;bottom=0;right=0;align=left;spacingLeft=6;overflow=hidden;dashed=1;fontSize=15;html=1;" parent="TGQOu_SkaZhyXz0knh_N-52" vertex="1">
          <mxGeometry x="30" width="240" height="30" as="geometry">
            <mxRectangle width="240" height="30" as="alternateBounds" />
          </mxGeometry>
        </mxCell>
        <mxCell id="TGQOu_SkaZhyXz0knh_N-55" style="shape=tableRow;horizontal=0;startSize=0;swimlaneHead=0;swimlaneBody=0;fillColor=none;collapsible=0;dropTarget=0;points=[[0,0.5],[1,0.5]];portConstraint=eastwest;top=0;left=0;right=0;bottom=0;dashed=1;fontSize=15;html=1;" parent="TGQOu_SkaZhyXz0knh_N-36" vertex="1">
          <mxGeometry y="210" width="270" height="30" as="geometry" />
        </mxCell>
        <mxCell id="TGQOu_SkaZhyXz0knh_N-56" style="shape=partialRectangle;connectable=0;fillColor=none;top=0;left=0;bottom=0;right=0;editable=1;overflow=hidden;dashed=1;fontSize=15;html=1;" parent="TGQOu_SkaZhyXz0knh_N-55" vertex="1">
          <mxGeometry width="30" height="30" as="geometry">
            <mxRectangle width="30" height="30" as="alternateBounds" />
          </mxGeometry>
        </mxCell>
        <mxCell id="TGQOu_SkaZhyXz0knh_N-57" value="antecedentesCliPat_consulta" style="shape=partialRectangle;connectable=0;fillColor=none;top=0;left=0;bottom=0;right=0;align=left;spacingLeft=6;overflow=hidden;dashed=1;fontSize=15;html=1;" parent="TGQOu_SkaZhyXz0knh_N-55" vertex="1">
          <mxGeometry x="30" width="240" height="30" as="geometry">
            <mxRectangle width="240" height="30" as="alternateBounds" />
          </mxGeometry>
        </mxCell>
        <mxCell id="TGQOu_SkaZhyXz0knh_N-58" style="shape=tableRow;horizontal=0;startSize=0;swimlaneHead=0;swimlaneBody=0;fillColor=none;collapsible=0;dropTarget=0;points=[[0,0.5],[1,0.5]];portConstraint=eastwest;top=0;left=0;right=0;bottom=0;dashed=1;fontSize=15;html=1;" parent="TGQOu_SkaZhyXz0knh_N-36" vertex="1">
          <mxGeometry y="240" width="270" height="30" as="geometry" />
        </mxCell>
        <mxCell id="TGQOu_SkaZhyXz0knh_N-59" style="shape=partialRectangle;connectable=0;fillColor=none;top=0;left=0;bottom=0;right=0;editable=1;overflow=hidden;dashed=1;fontSize=15;html=1;" parent="TGQOu_SkaZhyXz0knh_N-58" vertex="1">
          <mxGeometry width="30" height="30" as="geometry">
            <mxRectangle width="30" height="30" as="alternateBounds" />
          </mxGeometry>
        </mxCell>
        <mxCell id="TGQOu_SkaZhyXz0knh_N-60" value="antecedentesNoCliPat_consulta" style="shape=partialRectangle;connectable=0;fillColor=none;top=0;left=0;bottom=0;right=0;align=left;spacingLeft=6;overflow=hidden;dashed=1;fontSize=15;html=1;" parent="TGQOu_SkaZhyXz0knh_N-58" vertex="1">
          <mxGeometry x="30" width="240" height="30" as="geometry">
            <mxRectangle width="240" height="30" as="alternateBounds" />
          </mxGeometry>
        </mxCell>
        <mxCell id="TGQOu_SkaZhyXz0knh_N-61" style="shape=tableRow;horizontal=0;startSize=0;swimlaneHead=0;swimlaneBody=0;fillColor=none;collapsible=0;dropTarget=0;points=[[0,0.5],[1,0.5]];portConstraint=eastwest;top=0;left=0;right=0;bottom=0;dashed=1;fontSize=15;html=1;" parent="TGQOu_SkaZhyXz0knh_N-36" vertex="1">
          <mxGeometry y="270" width="270" height="30" as="geometry" />
        </mxCell>
        <mxCell id="TGQOu_SkaZhyXz0knh_N-62" style="shape=partialRectangle;connectable=0;fillColor=none;top=0;left=0;bottom=0;right=0;editable=1;overflow=hidden;dashed=1;fontSize=15;html=1;" parent="TGQOu_SkaZhyXz0knh_N-61" vertex="1">
          <mxGeometry width="30" height="30" as="geometry">
            <mxRectangle width="30" height="30" as="alternateBounds" />
          </mxGeometry>
        </mxCell>
        <mxCell id="TGQOu_SkaZhyXz0knh_N-63" value="genograma_consulta" style="shape=partialRectangle;connectable=0;fillColor=none;top=0;left=0;bottom=0;right=0;align=left;spacingLeft=6;overflow=hidden;dashed=1;fontSize=15;html=1;" parent="TGQOu_SkaZhyXz0knh_N-61" vertex="1">
          <mxGeometry x="30" width="240" height="30" as="geometry">
            <mxRectangle width="240" height="30" as="alternateBounds" />
          </mxGeometry>
        </mxCell>
        <mxCell id="TGQOu_SkaZhyXz0knh_N-77" style="shape=tableRow;horizontal=0;startSize=0;swimlaneHead=0;swimlaneBody=0;fillColor=none;collapsible=0;dropTarget=0;points=[[0,0.5],[1,0.5]];portConstraint=eastwest;top=0;left=0;right=0;bottom=0;dashed=1;fontSize=15;html=1;" parent="TGQOu_SkaZhyXz0knh_N-36" vertex="1">
          <mxGeometry y="300" width="270" height="30" as="geometry" />
        </mxCell>
        <mxCell id="TGQOu_SkaZhyXz0knh_N-78" style="shape=partialRectangle;connectable=0;fillColor=none;top=0;left=0;bottom=0;right=0;editable=1;overflow=hidden;dashed=1;fontSize=15;html=1;" parent="TGQOu_SkaZhyXz0knh_N-77" vertex="1">
          <mxGeometry width="30" height="30" as="geometry">
            <mxRectangle width="30" height="30" as="alternateBounds" />
          </mxGeometry>
        </mxCell>
        <mxCell id="TGQOu_SkaZhyXz0knh_N-79" value="planTerapeutico_consulta" style="shape=partialRectangle;connectable=0;fillColor=none;top=0;left=0;bottom=0;right=0;align=left;spacingLeft=6;overflow=hidden;dashed=1;fontSize=15;html=1;" parent="TGQOu_SkaZhyXz0knh_N-77" vertex="1">
          <mxGeometry x="30" width="240" height="30" as="geometry">
            <mxRectangle width="240" height="30" as="alternateBounds" />
          </mxGeometry>
        </mxCell>
        <mxCell id="TGQOu_SkaZhyXz0knh_N-74" style="shape=tableRow;horizontal=0;startSize=0;swimlaneHead=0;swimlaneBody=0;fillColor=none;collapsible=0;dropTarget=0;points=[[0,0.5],[1,0.5]];portConstraint=eastwest;top=0;left=0;right=0;bottom=0;dashed=1;fontSize=15;html=1;" parent="TGQOu_SkaZhyXz0knh_N-36" vertex="1">
          <mxGeometry y="330" width="270" height="30" as="geometry" />
        </mxCell>
        <mxCell id="TGQOu_SkaZhyXz0knh_N-75" style="shape=partialRectangle;connectable=0;fillColor=none;top=0;left=0;bottom=0;right=0;editable=1;overflow=hidden;dashed=1;fontSize=15;html=1;" parent="TGQOu_SkaZhyXz0knh_N-74" vertex="1">
          <mxGeometry width="30" height="30" as="geometry">
            <mxRectangle width="30" height="30" as="alternateBounds" />
          </mxGeometry>
        </mxCell>
        <mxCell id="TGQOu_SkaZhyXz0knh_N-76" value="notas_consulta" style="shape=partialRectangle;connectable=0;fillColor=none;top=0;left=0;bottom=0;right=0;align=left;spacingLeft=6;overflow=hidden;dashed=1;fontSize=15;html=1;" parent="TGQOu_SkaZhyXz0knh_N-74" vertex="1">
          <mxGeometry x="30" width="240" height="30" as="geometry">
            <mxRectangle width="240" height="30" as="alternateBounds" />
          </mxGeometry>
        </mxCell>
        <mxCell id="TGQOu_SkaZhyXz0knh_N-71" style="shape=tableRow;horizontal=0;startSize=0;swimlaneHead=0;swimlaneBody=0;fillColor=none;collapsible=0;dropTarget=0;points=[[0,0.5],[1,0.5]];portConstraint=eastwest;top=0;left=0;right=0;bottom=0;dashed=1;fontSize=15;html=1;" parent="TGQOu_SkaZhyXz0knh_N-36" vertex="1">
          <mxGeometry y="360" width="270" height="30" as="geometry" />
        </mxCell>
        <mxCell id="TGQOu_SkaZhyXz0knh_N-72" style="shape=partialRectangle;connectable=0;fillColor=none;top=0;left=0;bottom=0;right=0;editable=1;overflow=hidden;dashed=1;fontSize=15;html=1;" parent="TGQOu_SkaZhyXz0knh_N-71" vertex="1">
          <mxGeometry width="30" height="30" as="geometry">
            <mxRectangle width="30" height="30" as="alternateBounds" />
          </mxGeometry>
        </mxCell>
        <mxCell id="TGQOu_SkaZhyXz0knh_N-73" value="examenMentIni_consulta" style="shape=partialRectangle;connectable=0;fillColor=none;top=0;left=0;bottom=0;right=0;align=left;spacingLeft=6;overflow=hidden;dashed=1;fontSize=15;html=1;" parent="TGQOu_SkaZhyXz0knh_N-71" vertex="1">
          <mxGeometry x="30" width="240" height="30" as="geometry">
            <mxRectangle width="240" height="30" as="alternateBounds" />
          </mxGeometry>
        </mxCell>
        <mxCell id="TGQOu_SkaZhyXz0knh_N-68" style="shape=tableRow;horizontal=0;startSize=0;swimlaneHead=0;swimlaneBody=0;fillColor=none;collapsible=0;dropTarget=0;points=[[0,0.5],[1,0.5]];portConstraint=eastwest;top=0;left=0;right=0;bottom=0;dashed=1;fontSize=15;html=1;" parent="TGQOu_SkaZhyXz0knh_N-36" vertex="1">
          <mxGeometry y="390" width="270" height="30" as="geometry" />
        </mxCell>
        <mxCell id="TGQOu_SkaZhyXz0knh_N-69" style="shape=partialRectangle;connectable=0;fillColor=none;top=0;left=0;bottom=0;right=0;editable=1;overflow=hidden;dashed=1;fontSize=15;html=1;" parent="TGQOu_SkaZhyXz0knh_N-68" vertex="1">
          <mxGeometry width="30" height="30" as="geometry">
            <mxRectangle width="30" height="30" as="alternateBounds" />
          </mxGeometry>
        </mxCell>
        <mxCell id="TGQOu_SkaZhyXz0knh_N-70" value="historiaFamiliar_consulta" style="shape=partialRectangle;connectable=0;fillColor=none;top=0;left=0;bottom=0;right=0;align=left;spacingLeft=6;overflow=hidden;dashed=1;fontSize=15;html=1;" parent="TGQOu_SkaZhyXz0knh_N-68" vertex="1">
          <mxGeometry x="30" width="240" height="30" as="geometry">
            <mxRectangle width="240" height="30" as="alternateBounds" />
          </mxGeometry>
        </mxCell>
        <mxCell id="TGQOu_SkaZhyXz0knh_N-65" style="shape=tableRow;horizontal=0;startSize=0;swimlaneHead=0;swimlaneBody=0;fillColor=none;collapsible=0;dropTarget=0;points=[[0,0.5],[1,0.5]];portConstraint=eastwest;top=0;left=0;right=0;bottom=0;dashed=1;fontSize=15;html=1;" parent="TGQOu_SkaZhyXz0knh_N-36" vertex="1">
          <mxGeometry y="420" width="270" height="30" as="geometry" />
        </mxCell>
        <mxCell id="TGQOu_SkaZhyXz0knh_N-66" style="shape=partialRectangle;connectable=0;fillColor=none;top=0;left=0;bottom=0;right=0;editable=1;overflow=hidden;dashed=1;fontSize=15;html=1;" parent="TGQOu_SkaZhyXz0knh_N-65" vertex="1">
          <mxGeometry width="30" height="30" as="geometry">
            <mxRectangle width="30" height="30" as="alternateBounds" />
          </mxGeometry>
        </mxCell>
        <mxCell id="TGQOu_SkaZhyXz0knh_N-67" value="diagnosticoDif_consulta" style="shape=partialRectangle;connectable=0;fillColor=none;top=0;left=0;bottom=0;right=0;align=left;spacingLeft=6;overflow=hidden;dashed=1;fontSize=15;html=1;" parent="TGQOu_SkaZhyXz0knh_N-65" vertex="1">
          <mxGeometry x="30" width="240" height="30" as="geometry">
            <mxRectangle width="240" height="30" as="alternateBounds" />
          </mxGeometry>
        </mxCell>
        <mxCell id="TGQOu_SkaZhyXz0knh_N-123" value="Consultante" style="shape=table;startSize=30;container=1;collapsible=1;childLayout=tableLayout;fixedRows=1;rowLines=0;fontStyle=1;align=center;resizeLast=1;dashed=1;fontSize=15;html=1;" parent="1" vertex="1">
          <mxGeometry x="730" y="570" width="210" height="400" as="geometry">
            <mxRectangle x="760" y="500" width="120" height="30" as="alternateBounds" />
          </mxGeometry>
        </mxCell>
        <mxCell id="TGQOu_SkaZhyXz0knh_N-124" value="" style="shape=tableRow;horizontal=0;startSize=0;swimlaneHead=0;swimlaneBody=0;fillColor=none;collapsible=0;dropTarget=0;points=[[0,0.5],[1,0.5]];portConstraint=eastwest;top=0;left=0;right=0;bottom=1;dashed=1;fontSize=15;html=1;" parent="TGQOu_SkaZhyXz0knh_N-123" vertex="1">
          <mxGeometry y="30" width="210" height="30" as="geometry" />
        </mxCell>
        <mxCell id="TGQOu_SkaZhyXz0knh_N-125" value="PK" style="shape=partialRectangle;connectable=0;fillColor=none;top=0;left=0;bottom=0;right=0;fontStyle=1;overflow=hidden;dashed=1;fontSize=15;html=1;" parent="TGQOu_SkaZhyXz0knh_N-124" vertex="1">
          <mxGeometry width="30" height="30" as="geometry">
            <mxRectangle width="30" height="30" as="alternateBounds" />
          </mxGeometry>
        </mxCell>
        <mxCell id="TGQOu_SkaZhyXz0knh_N-126" value="id_consultante" style="shape=partialRectangle;connectable=0;fillColor=none;top=0;left=0;bottom=0;right=0;align=left;spacingLeft=6;fontStyle=5;overflow=hidden;dashed=1;fontSize=15;html=1;" parent="TGQOu_SkaZhyXz0knh_N-124" vertex="1">
          <mxGeometry x="30" width="180" height="30" as="geometry">
            <mxRectangle width="180" height="30" as="alternateBounds" />
          </mxGeometry>
        </mxCell>
        <mxCell id="Z6kF9D4gKEcNxFJI6eMI-13" style="shape=tableRow;horizontal=0;startSize=0;swimlaneHead=0;swimlaneBody=0;fillColor=none;collapsible=0;dropTarget=0;points=[[0,0.5],[1,0.5]];portConstraint=eastwest;top=0;left=0;right=0;bottom=0;dashed=1;fontSize=15;html=1;" parent="TGQOu_SkaZhyXz0knh_N-123" vertex="1">
          <mxGeometry y="60" width="210" height="30" as="geometry" />
        </mxCell>
        <mxCell id="Z6kF9D4gKEcNxFJI6eMI-14" value="FK" style="shape=partialRectangle;connectable=0;fillColor=none;top=0;left=0;bottom=0;right=0;editable=1;overflow=hidden;dashed=1;fontSize=15;html=1;" parent="Z6kF9D4gKEcNxFJI6eMI-13" vertex="1">
          <mxGeometry width="30" height="30" as="geometry">
            <mxRectangle width="30" height="30" as="alternateBounds" />
          </mxGeometry>
        </mxCell>
        <mxCell id="Z6kF9D4gKEcNxFJI6eMI-15" value="id_direccion" style="shape=partialRectangle;connectable=0;fillColor=none;top=0;left=0;bottom=0;right=0;align=left;spacingLeft=6;overflow=hidden;dashed=1;fontSize=15;html=1;" parent="Z6kF9D4gKEcNxFJI6eMI-13" vertex="1">
          <mxGeometry x="30" width="180" height="30" as="geometry">
            <mxRectangle width="180" height="30" as="alternateBounds" />
          </mxGeometry>
        </mxCell>
        <mxCell id="TGQOu_SkaZhyXz0knh_N-127" value="" style="shape=tableRow;horizontal=0;startSize=0;swimlaneHead=0;swimlaneBody=0;fillColor=none;collapsible=0;dropTarget=0;points=[[0,0.5],[1,0.5]];portConstraint=eastwest;top=0;left=0;right=0;bottom=0;dashed=1;fontSize=15;html=1;" parent="TGQOu_SkaZhyXz0knh_N-123" vertex="1">
          <mxGeometry y="90" width="210" height="30" as="geometry" />
        </mxCell>
        <mxCell id="TGQOu_SkaZhyXz0knh_N-128" value="FK" style="shape=partialRectangle;connectable=0;fillColor=none;top=0;left=0;bottom=0;right=0;editable=1;overflow=hidden;dashed=1;fontSize=15;html=1;" parent="TGQOu_SkaZhyXz0knh_N-127" vertex="1">
          <mxGeometry width="30" height="30" as="geometry">
            <mxRectangle width="30" height="30" as="alternateBounds" />
          </mxGeometry>
        </mxCell>
        <mxCell id="TGQOu_SkaZhyXz0knh_N-129" value="id_telefono" style="shape=partialRectangle;connectable=0;fillColor=none;top=0;left=0;bottom=0;right=0;align=left;spacingLeft=6;overflow=hidden;dashed=1;fontSize=15;html=1;" parent="TGQOu_SkaZhyXz0knh_N-127" vertex="1">
          <mxGeometry x="30" width="180" height="30" as="geometry">
            <mxRectangle width="180" height="30" as="alternateBounds" />
          </mxGeometry>
        </mxCell>
        <mxCell id="Z6kF9D4gKEcNxFJI6eMI-25" style="shape=tableRow;horizontal=0;startSize=0;swimlaneHead=0;swimlaneBody=0;fillColor=none;collapsible=0;dropTarget=0;points=[[0,0.5],[1,0.5]];portConstraint=eastwest;top=0;left=0;right=0;bottom=0;dashed=1;fontSize=15;html=1;" parent="TGQOu_SkaZhyXz0knh_N-123" vertex="1">
          <mxGeometry y="120" width="210" height="30" as="geometry" />
        </mxCell>
        <mxCell id="Z6kF9D4gKEcNxFJI6eMI-26" value="FK" style="shape=partialRectangle;connectable=0;fillColor=none;top=0;left=0;bottom=0;right=0;editable=1;overflow=hidden;dashed=1;fontSize=15;html=1;" parent="Z6kF9D4gKEcNxFJI6eMI-25" vertex="1">
          <mxGeometry width="30" height="30" as="geometry">
            <mxRectangle width="30" height="30" as="alternateBounds" />
          </mxGeometry>
        </mxCell>
        <mxCell id="Z6kF9D4gKEcNxFJI6eMI-27" value="id_eps" style="shape=partialRectangle;connectable=0;fillColor=none;top=0;left=0;bottom=0;right=0;align=left;spacingLeft=6;overflow=hidden;dashed=1;fontSize=15;html=1;" parent="Z6kF9D4gKEcNxFJI6eMI-25" vertex="1">
          <mxGeometry x="30" width="180" height="30" as="geometry">
            <mxRectangle width="180" height="30" as="alternateBounds" />
          </mxGeometry>
        </mxCell>
        <mxCell id="TGQOu_SkaZhyXz0knh_N-136" style="shape=tableRow;horizontal=0;startSize=0;swimlaneHead=0;swimlaneBody=0;fillColor=none;collapsible=0;dropTarget=0;points=[[0,0.5],[1,0.5]];portConstraint=eastwest;top=0;left=0;right=0;bottom=0;dashed=1;fontSize=15;html=1;" parent="TGQOu_SkaZhyXz0knh_N-123" vertex="1">
          <mxGeometry y="150" width="210" height="30" as="geometry" />
        </mxCell>
        <mxCell id="TGQOu_SkaZhyXz0knh_N-137" value="FK" style="shape=partialRectangle;connectable=0;fillColor=none;top=0;left=0;bottom=0;right=0;editable=1;overflow=hidden;dashed=1;fontSize=15;html=1;" parent="TGQOu_SkaZhyXz0knh_N-136" vertex="1">
          <mxGeometry width="30" height="30" as="geometry">
            <mxRectangle width="30" height="30" as="alternateBounds" />
          </mxGeometry>
        </mxCell>
        <mxCell id="TGQOu_SkaZhyXz0knh_N-138" value="id_ifechaNacimiento" style="shape=partialRectangle;connectable=0;fillColor=none;top=0;left=0;bottom=0;right=0;align=left;spacingLeft=6;overflow=hidden;dashed=1;fontSize=15;html=1;" parent="TGQOu_SkaZhyXz0knh_N-136" vertex="1">
          <mxGeometry x="30" width="180" height="30" as="geometry">
            <mxRectangle width="180" height="30" as="alternateBounds" />
          </mxGeometry>
        </mxCell>
        <mxCell id="TGQOu_SkaZhyXz0knh_N-130" value="" style="shape=tableRow;horizontal=0;startSize=0;swimlaneHead=0;swimlaneBody=0;fillColor=none;collapsible=0;dropTarget=0;points=[[0,0.5],[1,0.5]];portConstraint=eastwest;top=0;left=0;right=0;bottom=0;dashed=1;fontSize=15;html=1;" parent="TGQOu_SkaZhyXz0knh_N-123" vertex="1">
          <mxGeometry y="180" width="210" height="30" as="geometry" />
        </mxCell>
        <mxCell id="TGQOu_SkaZhyXz0knh_N-131" value="" style="shape=partialRectangle;connectable=0;fillColor=none;top=0;left=0;bottom=0;right=0;editable=1;overflow=hidden;dashed=1;fontSize=15;html=1;" parent="TGQOu_SkaZhyXz0knh_N-130" vertex="1">
          <mxGeometry width="30" height="30" as="geometry">
            <mxRectangle width="30" height="30" as="alternateBounds" />
          </mxGeometry>
        </mxCell>
        <mxCell id="TGQOu_SkaZhyXz0knh_N-132" value="apellidos_consultante" style="shape=partialRectangle;connectable=0;fillColor=none;top=0;left=0;bottom=0;right=0;align=left;spacingLeft=6;overflow=hidden;dashed=1;fontSize=15;html=1;" parent="TGQOu_SkaZhyXz0knh_N-130" vertex="1">
          <mxGeometry x="30" width="180" height="30" as="geometry">
            <mxRectangle width="180" height="30" as="alternateBounds" />
          </mxGeometry>
        </mxCell>
        <mxCell id="TGQOu_SkaZhyXz0knh_N-133" value="" style="shape=tableRow;horizontal=0;startSize=0;swimlaneHead=0;swimlaneBody=0;fillColor=none;collapsible=0;dropTarget=0;points=[[0,0.5],[1,0.5]];portConstraint=eastwest;top=0;left=0;right=0;bottom=0;dashed=1;fontSize=15;html=1;" parent="TGQOu_SkaZhyXz0knh_N-123" vertex="1">
          <mxGeometry y="210" width="210" height="30" as="geometry" />
        </mxCell>
        <mxCell id="TGQOu_SkaZhyXz0knh_N-134" value="" style="shape=partialRectangle;connectable=0;fillColor=none;top=0;left=0;bottom=0;right=0;editable=1;overflow=hidden;dashed=1;fontSize=15;html=1;" parent="TGQOu_SkaZhyXz0knh_N-133" vertex="1">
          <mxGeometry width="30" height="30" as="geometry">
            <mxRectangle width="30" height="30" as="alternateBounds" />
          </mxGeometry>
        </mxCell>
        <mxCell id="TGQOu_SkaZhyXz0knh_N-135" value="tipoDocumento_consultante" style="shape=partialRectangle;connectable=0;fillColor=none;top=0;left=0;bottom=0;right=0;align=left;spacingLeft=6;overflow=hidden;dashed=1;fontSize=15;html=1;" parent="TGQOu_SkaZhyXz0knh_N-133" vertex="1">
          <mxGeometry x="30" width="180" height="30" as="geometry">
            <mxRectangle width="180" height="30" as="alternateBounds" />
          </mxGeometry>
        </mxCell>
        <mxCell id="TGQOu_SkaZhyXz0knh_N-139" style="shape=tableRow;horizontal=0;startSize=0;swimlaneHead=0;swimlaneBody=0;fillColor=none;collapsible=0;dropTarget=0;points=[[0,0.5],[1,0.5]];portConstraint=eastwest;top=0;left=0;right=0;bottom=0;dashed=1;fontSize=15;html=1;" parent="TGQOu_SkaZhyXz0knh_N-123" vertex="1">
          <mxGeometry y="240" width="210" height="30" as="geometry" />
        </mxCell>
        <mxCell id="TGQOu_SkaZhyXz0knh_N-140" style="shape=partialRectangle;connectable=0;fillColor=none;top=0;left=0;bottom=0;right=0;editable=1;overflow=hidden;dashed=1;fontSize=15;html=1;" parent="TGQOu_SkaZhyXz0knh_N-139" vertex="1">
          <mxGeometry width="30" height="30" as="geometry">
            <mxRectangle width="30" height="30" as="alternateBounds" />
          </mxGeometry>
        </mxCell>
        <mxCell id="TGQOu_SkaZhyXz0knh_N-141" value="sexo_consultante" style="shape=partialRectangle;connectable=0;fillColor=none;top=0;left=0;bottom=0;right=0;align=left;spacingLeft=6;overflow=hidden;dashed=1;fontSize=15;html=1;" parent="TGQOu_SkaZhyXz0knh_N-139" vertex="1">
          <mxGeometry x="30" width="180" height="30" as="geometry">
            <mxRectangle width="180" height="30" as="alternateBounds" />
          </mxGeometry>
        </mxCell>
        <mxCell id="TGQOu_SkaZhyXz0knh_N-142" style="shape=tableRow;horizontal=0;startSize=0;swimlaneHead=0;swimlaneBody=0;fillColor=none;collapsible=0;dropTarget=0;points=[[0,0.5],[1,0.5]];portConstraint=eastwest;top=0;left=0;right=0;bottom=0;dashed=1;fontSize=15;html=1;" parent="TGQOu_SkaZhyXz0knh_N-123" vertex="1">
          <mxGeometry y="270" width="210" height="30" as="geometry" />
        </mxCell>
        <mxCell id="TGQOu_SkaZhyXz0knh_N-143" style="shape=partialRectangle;connectable=0;fillColor=none;top=0;left=0;bottom=0;right=0;editable=1;overflow=hidden;dashed=1;fontSize=15;html=1;" parent="TGQOu_SkaZhyXz0knh_N-142" vertex="1">
          <mxGeometry width="30" height="30" as="geometry">
            <mxRectangle width="30" height="30" as="alternateBounds" />
          </mxGeometry>
        </mxCell>
        <mxCell id="TGQOu_SkaZhyXz0knh_N-144" value="genero_consultante" style="shape=partialRectangle;connectable=0;fillColor=none;top=0;left=0;bottom=0;right=0;align=left;spacingLeft=6;overflow=hidden;dashed=1;fontSize=15;html=1;" parent="TGQOu_SkaZhyXz0knh_N-142" vertex="1">
          <mxGeometry x="30" width="180" height="30" as="geometry">
            <mxRectangle width="180" height="30" as="alternateBounds" />
          </mxGeometry>
        </mxCell>
        <mxCell id="TGQOu_SkaZhyXz0knh_N-145" style="shape=tableRow;horizontal=0;startSize=0;swimlaneHead=0;swimlaneBody=0;fillColor=none;collapsible=0;dropTarget=0;points=[[0,0.5],[1,0.5]];portConstraint=eastwest;top=0;left=0;right=0;bottom=0;dashed=1;fontSize=15;html=1;" parent="TGQOu_SkaZhyXz0knh_N-123" vertex="1">
          <mxGeometry y="300" width="210" height="30" as="geometry" />
        </mxCell>
        <mxCell id="TGQOu_SkaZhyXz0knh_N-146" style="shape=partialRectangle;connectable=0;fillColor=none;top=0;left=0;bottom=0;right=0;editable=1;overflow=hidden;dashed=1;fontSize=15;html=1;" parent="TGQOu_SkaZhyXz0knh_N-145" vertex="1">
          <mxGeometry width="30" height="30" as="geometry">
            <mxRectangle width="30" height="30" as="alternateBounds" />
          </mxGeometry>
        </mxCell>
        <mxCell id="TGQOu_SkaZhyXz0knh_N-147" value="estadoCivil_consultante" style="shape=partialRectangle;connectable=0;fillColor=none;top=0;left=0;bottom=0;right=0;align=left;spacingLeft=6;overflow=hidden;dashed=1;fontSize=15;html=1;" parent="TGQOu_SkaZhyXz0knh_N-145" vertex="1">
          <mxGeometry x="30" width="180" height="30" as="geometry">
            <mxRectangle width="180" height="30" as="alternateBounds" />
          </mxGeometry>
        </mxCell>
        <mxCell id="TGQOu_SkaZhyXz0knh_N-148" style="shape=tableRow;horizontal=0;startSize=0;swimlaneHead=0;swimlaneBody=0;fillColor=none;collapsible=0;dropTarget=0;points=[[0,0.5],[1,0.5]];portConstraint=eastwest;top=0;left=0;right=0;bottom=0;dashed=1;fontSize=15;html=1;" parent="TGQOu_SkaZhyXz0knh_N-123" vertex="1">
          <mxGeometry y="330" width="210" height="30" as="geometry" />
        </mxCell>
        <mxCell id="TGQOu_SkaZhyXz0knh_N-149" style="shape=partialRectangle;connectable=0;fillColor=none;top=0;left=0;bottom=0;right=0;editable=1;overflow=hidden;dashed=1;fontSize=15;html=1;" parent="TGQOu_SkaZhyXz0knh_N-148" vertex="1">
          <mxGeometry width="30" height="30" as="geometry">
            <mxRectangle width="30" height="30" as="alternateBounds" />
          </mxGeometry>
        </mxCell>
        <mxCell id="TGQOu_SkaZhyXz0knh_N-150" value="escolaridad_consultante" style="shape=partialRectangle;connectable=0;fillColor=none;top=0;left=0;bottom=0;right=0;align=left;spacingLeft=6;overflow=hidden;dashed=1;fontSize=15;html=1;" parent="TGQOu_SkaZhyXz0knh_N-148" vertex="1">
          <mxGeometry x="30" width="180" height="30" as="geometry">
            <mxRectangle width="180" height="30" as="alternateBounds" />
          </mxGeometry>
        </mxCell>
        <mxCell id="Z6kF9D4gKEcNxFJI6eMI-22" style="shape=tableRow;horizontal=0;startSize=0;swimlaneHead=0;swimlaneBody=0;fillColor=none;collapsible=0;dropTarget=0;points=[[0,0.5],[1,0.5]];portConstraint=eastwest;top=0;left=0;right=0;bottom=0;dashed=1;fontSize=15;html=1;" parent="TGQOu_SkaZhyXz0knh_N-123" vertex="1">
          <mxGeometry y="360" width="210" height="30" as="geometry" />
        </mxCell>
        <mxCell id="Z6kF9D4gKEcNxFJI6eMI-23" style="shape=partialRectangle;connectable=0;fillColor=none;top=0;left=0;bottom=0;right=0;editable=1;overflow=hidden;dashed=1;fontSize=15;html=1;" parent="Z6kF9D4gKEcNxFJI6eMI-22" vertex="1">
          <mxGeometry width="30" height="30" as="geometry">
            <mxRectangle width="30" height="30" as="alternateBounds" />
          </mxGeometry>
        </mxCell>
        <mxCell id="Z6kF9D4gKEcNxFJI6eMI-24" value="ocupacion_consultante" style="shape=partialRectangle;connectable=0;fillColor=none;top=0;left=0;bottom=0;right=0;align=left;spacingLeft=6;overflow=hidden;dashed=1;fontSize=15;html=1;" parent="Z6kF9D4gKEcNxFJI6eMI-22" vertex="1">
          <mxGeometry x="30" width="180" height="30" as="geometry">
            <mxRectangle width="180" height="30" as="alternateBounds" />
          </mxGeometry>
        </mxCell>
        <mxCell id="Z6kF9D4gKEcNxFJI6eMI-32" style="edgeStyle=orthogonalEdgeStyle;rounded=0;orthogonalLoop=1;jettySize=auto;html=1;fontSize=15;endArrow=ERzeroToMany;endFill=0;startArrow=ERzeroToOne;startFill=0;" parent="1" source="TGQOu_SkaZhyXz0knh_N-124" target="TGQOu_SkaZhyXz0knh_N-43" edge="1">
          <mxGeometry relative="1" as="geometry" />
        </mxCell>
        <mxCell id="Z6kF9D4gKEcNxFJI6eMI-34" style="edgeStyle=orthogonalEdgeStyle;rounded=0;orthogonalLoop=1;jettySize=auto;html=1;fontSize=15;endArrow=ERzeroToMany;endFill=0;startArrow=ERzeroToOne;startFill=0;entryX=0;entryY=0.5;entryDx=0;entryDy=0;" parent="1" source="ee2IhAGhDenbNyClMT5V-13" target="TGQOu_SkaZhyXz0knh_N-37" edge="1">
          <mxGeometry relative="1" as="geometry">
            <mxPoint x="770" y="555" as="sourcePoint" />
            <mxPoint x="490" y="400" as="targetPoint" />
            <Array as="points">
              <mxPoint x="70" y="195" />
              <mxPoint x="70" y="590" />
              <mxPoint x="100" y="590" />
            </Array>
          </mxGeometry>
        </mxCell>
        <mxCell id="Z6kF9D4gKEcNxFJI6eMI-42" value="Direccion" style="shape=table;startSize=30;container=1;collapsible=1;childLayout=tableLayout;fixedRows=1;rowLines=0;fontStyle=1;align=center;resizeLast=1;dashed=1;fontSize=15;html=1;" parent="1" vertex="1">
          <mxGeometry x="1170" y="510" width="210" height="220" as="geometry" />
        </mxCell>
        <mxCell id="Z6kF9D4gKEcNxFJI6eMI-43" value="" style="shape=tableRow;horizontal=0;startSize=0;swimlaneHead=0;swimlaneBody=0;fillColor=none;collapsible=0;dropTarget=0;points=[[0,0.5],[1,0.5]];portConstraint=eastwest;top=0;left=0;right=0;bottom=0;dashed=1;fontSize=15;html=1;" parent="Z6kF9D4gKEcNxFJI6eMI-42" vertex="1">
          <mxGeometry y="30" width="210" height="30" as="geometry" />
        </mxCell>
        <mxCell id="Z6kF9D4gKEcNxFJI6eMI-44" value="&lt;b&gt;PK&lt;/b&gt;" style="shape=partialRectangle;connectable=0;fillColor=none;top=0;left=0;bottom=0;right=0;editable=1;overflow=hidden;dashed=1;fontSize=15;html=1;" parent="Z6kF9D4gKEcNxFJI6eMI-43" vertex="1">
          <mxGeometry width="30" height="30" as="geometry">
            <mxRectangle width="30" height="30" as="alternateBounds" />
          </mxGeometry>
        </mxCell>
        <mxCell id="Z6kF9D4gKEcNxFJI6eMI-45" value="&lt;b&gt;id_direccion&lt;/b&gt;" style="shape=partialRectangle;connectable=0;fillColor=none;top=0;left=0;bottom=0;right=0;align=left;spacingLeft=6;overflow=hidden;dashed=1;fontSize=15;html=1;" parent="Z6kF9D4gKEcNxFJI6eMI-43" vertex="1">
          <mxGeometry x="30" width="180" height="30" as="geometry">
            <mxRectangle width="180" height="30" as="alternateBounds" />
          </mxGeometry>
        </mxCell>
        <mxCell id="Z6kF9D4gKEcNxFJI6eMI-46" value="" style="shape=tableRow;horizontal=0;startSize=0;swimlaneHead=0;swimlaneBody=0;fillColor=none;collapsible=0;dropTarget=0;points=[[0,0.5],[1,0.5]];portConstraint=eastwest;top=0;left=0;right=0;bottom=0;dashed=1;fontSize=15;html=1;" parent="Z6kF9D4gKEcNxFJI6eMI-42" vertex="1">
          <mxGeometry y="60" width="210" height="30" as="geometry" />
        </mxCell>
        <mxCell id="Z6kF9D4gKEcNxFJI6eMI-47" value="" style="shape=partialRectangle;connectable=0;fillColor=none;top=0;left=0;bottom=0;right=0;editable=1;overflow=hidden;dashed=1;fontSize=15;html=1;" parent="Z6kF9D4gKEcNxFJI6eMI-46" vertex="1">
          <mxGeometry width="30" height="30" as="geometry">
            <mxRectangle width="30" height="30" as="alternateBounds" />
          </mxGeometry>
        </mxCell>
        <mxCell id="Z6kF9D4gKEcNxFJI6eMI-48" value="nomenclatura_direccion" style="shape=partialRectangle;connectable=0;fillColor=none;top=0;left=0;bottom=0;right=0;align=left;spacingLeft=6;overflow=hidden;dashed=1;fontSize=15;html=1;" parent="Z6kF9D4gKEcNxFJI6eMI-46" vertex="1">
          <mxGeometry x="30" width="180" height="30" as="geometry">
            <mxRectangle width="180" height="30" as="alternateBounds" />
          </mxGeometry>
        </mxCell>
        <mxCell id="Z6kF9D4gKEcNxFJI6eMI-52" style="shape=tableRow;horizontal=0;startSize=0;swimlaneHead=0;swimlaneBody=0;fillColor=none;collapsible=0;dropTarget=0;points=[[0,0.5],[1,0.5]];portConstraint=eastwest;top=0;left=0;right=0;bottom=0;dashed=1;fontSize=15;html=1;" parent="Z6kF9D4gKEcNxFJI6eMI-42" vertex="1">
          <mxGeometry y="90" width="210" height="30" as="geometry" />
        </mxCell>
        <mxCell id="Z6kF9D4gKEcNxFJI6eMI-53" style="shape=partialRectangle;connectable=0;fillColor=none;top=0;left=0;bottom=0;right=0;editable=1;overflow=hidden;dashed=1;fontSize=15;html=1;" parent="Z6kF9D4gKEcNxFJI6eMI-52" vertex="1">
          <mxGeometry width="30" height="30" as="geometry">
            <mxRectangle width="30" height="30" as="alternateBounds" />
          </mxGeometry>
        </mxCell>
        <mxCell id="Z6kF9D4gKEcNxFJI6eMI-54" value="pais_direccion" style="shape=partialRectangle;connectable=0;fillColor=none;top=0;left=0;bottom=0;right=0;align=left;spacingLeft=6;overflow=hidden;dashed=1;fontSize=15;html=1;" parent="Z6kF9D4gKEcNxFJI6eMI-52" vertex="1">
          <mxGeometry x="30" width="180" height="30" as="geometry">
            <mxRectangle width="180" height="30" as="alternateBounds" />
          </mxGeometry>
        </mxCell>
        <mxCell id="Z6kF9D4gKEcNxFJI6eMI-49" style="shape=tableRow;horizontal=0;startSize=0;swimlaneHead=0;swimlaneBody=0;fillColor=none;collapsible=0;dropTarget=0;points=[[0,0.5],[1,0.5]];portConstraint=eastwest;top=0;left=0;right=0;bottom=0;dashed=1;fontSize=15;html=1;" parent="Z6kF9D4gKEcNxFJI6eMI-42" vertex="1">
          <mxGeometry y="120" width="210" height="30" as="geometry" />
        </mxCell>
        <mxCell id="Z6kF9D4gKEcNxFJI6eMI-50" style="shape=partialRectangle;connectable=0;fillColor=none;top=0;left=0;bottom=0;right=0;editable=1;overflow=hidden;dashed=1;fontSize=15;html=1;" parent="Z6kF9D4gKEcNxFJI6eMI-49" vertex="1">
          <mxGeometry width="30" height="30" as="geometry">
            <mxRectangle width="30" height="30" as="alternateBounds" />
          </mxGeometry>
        </mxCell>
        <mxCell id="Z6kF9D4gKEcNxFJI6eMI-51" value="ciudad_direccion" style="shape=partialRectangle;connectable=0;fillColor=none;top=0;left=0;bottom=0;right=0;align=left;spacingLeft=6;overflow=hidden;dashed=1;fontSize=15;html=1;" parent="Z6kF9D4gKEcNxFJI6eMI-49" vertex="1">
          <mxGeometry x="30" width="180" height="30" as="geometry">
            <mxRectangle width="180" height="30" as="alternateBounds" />
          </mxGeometry>
        </mxCell>
        <mxCell id="Z6kF9D4gKEcNxFJI6eMI-55" style="shape=tableRow;horizontal=0;startSize=0;swimlaneHead=0;swimlaneBody=0;fillColor=none;collapsible=0;dropTarget=0;points=[[0,0.5],[1,0.5]];portConstraint=eastwest;top=0;left=0;right=0;bottom=0;dashed=1;fontSize=15;html=1;" parent="Z6kF9D4gKEcNxFJI6eMI-42" vertex="1">
          <mxGeometry y="150" width="210" height="30" as="geometry" />
        </mxCell>
        <mxCell id="Z6kF9D4gKEcNxFJI6eMI-56" style="shape=partialRectangle;connectable=0;fillColor=none;top=0;left=0;bottom=0;right=0;editable=1;overflow=hidden;dashed=1;fontSize=15;html=1;" parent="Z6kF9D4gKEcNxFJI6eMI-55" vertex="1">
          <mxGeometry width="30" height="30" as="geometry">
            <mxRectangle width="30" height="30" as="alternateBounds" />
          </mxGeometry>
        </mxCell>
        <mxCell id="Z6kF9D4gKEcNxFJI6eMI-57" value="localidad_direccion" style="shape=partialRectangle;connectable=0;fillColor=none;top=0;left=0;bottom=0;right=0;align=left;spacingLeft=6;overflow=hidden;dashed=1;fontSize=15;html=1;" parent="Z6kF9D4gKEcNxFJI6eMI-55" vertex="1">
          <mxGeometry x="30" width="180" height="30" as="geometry">
            <mxRectangle width="180" height="30" as="alternateBounds" />
          </mxGeometry>
        </mxCell>
        <mxCell id="Z6kF9D4gKEcNxFJI6eMI-61" style="shape=tableRow;horizontal=0;startSize=0;swimlaneHead=0;swimlaneBody=0;fillColor=none;collapsible=0;dropTarget=0;points=[[0,0.5],[1,0.5]];portConstraint=eastwest;top=0;left=0;right=0;bottom=0;dashed=1;fontSize=15;html=1;" parent="Z6kF9D4gKEcNxFJI6eMI-42" vertex="1">
          <mxGeometry y="180" width="210" height="30" as="geometry" />
        </mxCell>
        <mxCell id="Z6kF9D4gKEcNxFJI6eMI-62" style="shape=partialRectangle;connectable=0;fillColor=none;top=0;left=0;bottom=0;right=0;editable=1;overflow=hidden;dashed=1;fontSize=15;html=1;" parent="Z6kF9D4gKEcNxFJI6eMI-61" vertex="1">
          <mxGeometry width="30" height="30" as="geometry">
            <mxRectangle width="30" height="30" as="alternateBounds" />
          </mxGeometry>
        </mxCell>
        <mxCell id="Z6kF9D4gKEcNxFJI6eMI-63" value="barrio_direccion" style="shape=partialRectangle;connectable=0;fillColor=none;top=0;left=0;bottom=0;right=0;align=left;spacingLeft=6;overflow=hidden;dashed=1;fontSize=15;html=1;" parent="Z6kF9D4gKEcNxFJI6eMI-61" vertex="1">
          <mxGeometry x="30" width="180" height="30" as="geometry">
            <mxRectangle width="180" height="30" as="alternateBounds" />
          </mxGeometry>
        </mxCell>
        <mxCell id="Z6kF9D4gKEcNxFJI6eMI-64" value="Telefono" style="shape=table;startSize=30;container=1;collapsible=1;childLayout=tableLayout;fixedRows=1;rowLines=0;fontStyle=1;align=center;resizeLast=1;dashed=1;fontSize=15;html=1;" parent="1" vertex="1">
          <mxGeometry x="1180" y="770" width="210" height="130" as="geometry" />
        </mxCell>
        <mxCell id="Z6kF9D4gKEcNxFJI6eMI-65" value="" style="shape=tableRow;horizontal=0;startSize=0;swimlaneHead=0;swimlaneBody=0;fillColor=none;collapsible=0;dropTarget=0;points=[[0,0.5],[1,0.5]];portConstraint=eastwest;top=0;left=0;right=0;bottom=0;dashed=1;fontSize=15;html=1;" parent="Z6kF9D4gKEcNxFJI6eMI-64" vertex="1">
          <mxGeometry y="30" width="210" height="30" as="geometry" />
        </mxCell>
        <mxCell id="Z6kF9D4gKEcNxFJI6eMI-66" value="&lt;b&gt;PK&lt;/b&gt;" style="shape=partialRectangle;connectable=0;fillColor=none;top=0;left=0;bottom=0;right=0;editable=1;overflow=hidden;dashed=1;fontSize=15;html=1;" parent="Z6kF9D4gKEcNxFJI6eMI-65" vertex="1">
          <mxGeometry width="30" height="30" as="geometry">
            <mxRectangle width="30" height="30" as="alternateBounds" />
          </mxGeometry>
        </mxCell>
        <mxCell id="Z6kF9D4gKEcNxFJI6eMI-67" value="&lt;b&gt;id_telefono&lt;/b&gt;" style="shape=partialRectangle;connectable=0;fillColor=none;top=0;left=0;bottom=0;right=0;align=left;spacingLeft=6;overflow=hidden;dashed=1;fontSize=15;html=1;" parent="Z6kF9D4gKEcNxFJI6eMI-65" vertex="1">
          <mxGeometry x="30" width="180" height="30" as="geometry">
            <mxRectangle width="180" height="30" as="alternateBounds" />
          </mxGeometry>
        </mxCell>
        <mxCell id="Z6kF9D4gKEcNxFJI6eMI-68" value="" style="shape=tableRow;horizontal=0;startSize=0;swimlaneHead=0;swimlaneBody=0;fillColor=none;collapsible=0;dropTarget=0;points=[[0,0.5],[1,0.5]];portConstraint=eastwest;top=0;left=0;right=0;bottom=0;dashed=1;fontSize=15;html=1;" parent="Z6kF9D4gKEcNxFJI6eMI-64" vertex="1">
          <mxGeometry y="60" width="210" height="30" as="geometry" />
        </mxCell>
        <mxCell id="Z6kF9D4gKEcNxFJI6eMI-69" value="" style="shape=partialRectangle;connectable=0;fillColor=none;top=0;left=0;bottom=0;right=0;editable=1;overflow=hidden;dashed=1;fontSize=15;html=1;" parent="Z6kF9D4gKEcNxFJI6eMI-68" vertex="1">
          <mxGeometry width="30" height="30" as="geometry">
            <mxRectangle width="30" height="30" as="alternateBounds" />
          </mxGeometry>
        </mxCell>
        <mxCell id="Z6kF9D4gKEcNxFJI6eMI-70" value="fijo_telefono" style="shape=partialRectangle;connectable=0;fillColor=none;top=0;left=0;bottom=0;right=0;align=left;spacingLeft=6;overflow=hidden;dashed=1;fontSize=15;html=1;" parent="Z6kF9D4gKEcNxFJI6eMI-68" vertex="1">
          <mxGeometry x="30" width="180" height="30" as="geometry">
            <mxRectangle width="180" height="30" as="alternateBounds" />
          </mxGeometry>
        </mxCell>
        <mxCell id="Z6kF9D4gKEcNxFJI6eMI-71" style="shape=tableRow;horizontal=0;startSize=0;swimlaneHead=0;swimlaneBody=0;fillColor=none;collapsible=0;dropTarget=0;points=[[0,0.5],[1,0.5]];portConstraint=eastwest;top=0;left=0;right=0;bottom=0;dashed=1;fontSize=15;html=1;" parent="Z6kF9D4gKEcNxFJI6eMI-64" vertex="1">
          <mxGeometry y="90" width="210" height="30" as="geometry" />
        </mxCell>
        <mxCell id="Z6kF9D4gKEcNxFJI6eMI-72" style="shape=partialRectangle;connectable=0;fillColor=none;top=0;left=0;bottom=0;right=0;editable=1;overflow=hidden;dashed=1;fontSize=15;html=1;" parent="Z6kF9D4gKEcNxFJI6eMI-71" vertex="1">
          <mxGeometry width="30" height="30" as="geometry">
            <mxRectangle width="30" height="30" as="alternateBounds" />
          </mxGeometry>
        </mxCell>
        <mxCell id="Z6kF9D4gKEcNxFJI6eMI-73" value="celular_telefono" style="shape=partialRectangle;connectable=0;fillColor=none;top=0;left=0;bottom=0;right=0;align=left;spacingLeft=6;overflow=hidden;dashed=1;fontSize=15;html=1;" parent="Z6kF9D4gKEcNxFJI6eMI-71" vertex="1">
          <mxGeometry x="30" width="180" height="30" as="geometry">
            <mxRectangle width="180" height="30" as="alternateBounds" />
          </mxGeometry>
        </mxCell>
        <mxCell id="Z6kF9D4gKEcNxFJI6eMI-83" value="Eps" style="shape=table;startSize=30;container=1;collapsible=1;childLayout=tableLayout;fixedRows=1;rowLines=0;fontStyle=1;align=center;resizeLast=1;dashed=1;fontSize=15;html=1;" parent="1" vertex="1">
          <mxGeometry x="1180" y="930" width="210" height="130" as="geometry" />
        </mxCell>
        <mxCell id="Z6kF9D4gKEcNxFJI6eMI-84" value="" style="shape=tableRow;horizontal=0;startSize=0;swimlaneHead=0;swimlaneBody=0;fillColor=none;collapsible=0;dropTarget=0;points=[[0,0.5],[1,0.5]];portConstraint=eastwest;top=0;left=0;right=0;bottom=0;dashed=1;fontSize=15;html=1;" parent="Z6kF9D4gKEcNxFJI6eMI-83" vertex="1">
          <mxGeometry y="30" width="210" height="30" as="geometry" />
        </mxCell>
        <mxCell id="Z6kF9D4gKEcNxFJI6eMI-85" value="&lt;b&gt;PK&lt;/b&gt;" style="shape=partialRectangle;connectable=0;fillColor=none;top=0;left=0;bottom=0;right=0;editable=1;overflow=hidden;dashed=1;fontSize=15;html=1;" parent="Z6kF9D4gKEcNxFJI6eMI-84" vertex="1">
          <mxGeometry width="30" height="30" as="geometry">
            <mxRectangle width="30" height="30" as="alternateBounds" />
          </mxGeometry>
        </mxCell>
        <mxCell id="Z6kF9D4gKEcNxFJI6eMI-86" value="&lt;b&gt;id_eps&lt;/b&gt;" style="shape=partialRectangle;connectable=0;fillColor=none;top=0;left=0;bottom=0;right=0;align=left;spacingLeft=6;overflow=hidden;dashed=1;fontSize=15;html=1;" parent="Z6kF9D4gKEcNxFJI6eMI-84" vertex="1">
          <mxGeometry x="30" width="180" height="30" as="geometry">
            <mxRectangle width="180" height="30" as="alternateBounds" />
          </mxGeometry>
        </mxCell>
        <mxCell id="Z6kF9D4gKEcNxFJI6eMI-87" value="" style="shape=tableRow;horizontal=0;startSize=0;swimlaneHead=0;swimlaneBody=0;fillColor=none;collapsible=0;dropTarget=0;points=[[0,0.5],[1,0.5]];portConstraint=eastwest;top=0;left=0;right=0;bottom=0;dashed=1;fontSize=15;html=1;" parent="Z6kF9D4gKEcNxFJI6eMI-83" vertex="1">
          <mxGeometry y="60" width="210" height="30" as="geometry" />
        </mxCell>
        <mxCell id="Z6kF9D4gKEcNxFJI6eMI-88" value="" style="shape=partialRectangle;connectable=0;fillColor=none;top=0;left=0;bottom=0;right=0;editable=1;overflow=hidden;dashed=1;fontSize=15;html=1;" parent="Z6kF9D4gKEcNxFJI6eMI-87" vertex="1">
          <mxGeometry width="30" height="30" as="geometry">
            <mxRectangle width="30" height="30" as="alternateBounds" />
          </mxGeometry>
        </mxCell>
        <mxCell id="Z6kF9D4gKEcNxFJI6eMI-89" value="nombre_eps" style="shape=partialRectangle;connectable=0;fillColor=none;top=0;left=0;bottom=0;right=0;align=left;spacingLeft=6;overflow=hidden;dashed=1;fontSize=15;html=1;" parent="Z6kF9D4gKEcNxFJI6eMI-87" vertex="1">
          <mxGeometry x="30" width="180" height="30" as="geometry">
            <mxRectangle width="180" height="30" as="alternateBounds" />
          </mxGeometry>
        </mxCell>
        <mxCell id="Z6kF9D4gKEcNxFJI6eMI-90" style="shape=tableRow;horizontal=0;startSize=0;swimlaneHead=0;swimlaneBody=0;fillColor=none;collapsible=0;dropTarget=0;points=[[0,0.5],[1,0.5]];portConstraint=eastwest;top=0;left=0;right=0;bottom=0;dashed=1;fontSize=15;html=1;" parent="Z6kF9D4gKEcNxFJI6eMI-83" vertex="1">
          <mxGeometry y="90" width="210" height="30" as="geometry" />
        </mxCell>
        <mxCell id="Z6kF9D4gKEcNxFJI6eMI-91" style="shape=partialRectangle;connectable=0;fillColor=none;top=0;left=0;bottom=0;right=0;editable=1;overflow=hidden;dashed=1;fontSize=15;html=1;" parent="Z6kF9D4gKEcNxFJI6eMI-90" vertex="1">
          <mxGeometry width="30" height="30" as="geometry">
            <mxRectangle width="30" height="30" as="alternateBounds" />
          </mxGeometry>
        </mxCell>
        <mxCell id="Z6kF9D4gKEcNxFJI6eMI-92" value="tipoRegimen_eps" style="shape=partialRectangle;connectable=0;fillColor=none;top=0;left=0;bottom=0;right=0;align=left;spacingLeft=6;overflow=hidden;dashed=1;fontSize=15;html=1;" parent="Z6kF9D4gKEcNxFJI6eMI-90" vertex="1">
          <mxGeometry x="30" width="180" height="30" as="geometry">
            <mxRectangle width="180" height="30" as="alternateBounds" />
          </mxGeometry>
        </mxCell>
        <mxCell id="Z6kF9D4gKEcNxFJI6eMI-93" style="edgeStyle=orthogonalEdgeStyle;rounded=0;orthogonalLoop=1;jettySize=auto;html=1;fontSize=15;endArrow=ERzeroToOne;endFill=0;startArrow=ERzeroToOne;startFill=0;exitX=1;exitY=0.5;exitDx=0;exitDy=0;" parent="1" source="TGQOu_SkaZhyXz0knh_N-127" target="Z6kF9D4gKEcNxFJI6eMI-65" edge="1">
          <mxGeometry relative="1" as="geometry">
            <mxPoint x="1180" y="410" as="sourcePoint" />
            <mxPoint x="790" y="440" as="targetPoint" />
          </mxGeometry>
        </mxCell>
        <mxCell id="Z6kF9D4gKEcNxFJI6eMI-94" style="edgeStyle=orthogonalEdgeStyle;rounded=0;orthogonalLoop=1;jettySize=auto;html=1;fontSize=15;endArrow=ERzeroToOne;endFill=0;startArrow=ERzeroToOne;startFill=0;" parent="1" source="Z6kF9D4gKEcNxFJI6eMI-13" target="Z6kF9D4gKEcNxFJI6eMI-43" edge="1">
          <mxGeometry relative="1" as="geometry">
            <mxPoint x="900" y="370" as="sourcePoint" />
            <mxPoint x="1140" y="530" as="targetPoint" />
          </mxGeometry>
        </mxCell>
        <mxCell id="Z6kF9D4gKEcNxFJI6eMI-95" style="edgeStyle=orthogonalEdgeStyle;rounded=0;orthogonalLoop=1;jettySize=auto;html=1;fontSize=15;endArrow=ERzeroToOne;endFill=0;startArrow=ERzeroToOne;startFill=0;" parent="1" source="Z6kF9D4gKEcNxFJI6eMI-25" target="Z6kF9D4gKEcNxFJI6eMI-84" edge="1">
          <mxGeometry relative="1" as="geometry">
            <mxPoint x="990" y="675" as="sourcePoint" />
            <mxPoint x="1230" y="835" as="targetPoint" />
            <Array as="points">
              <mxPoint x="1020" y="705" />
              <mxPoint x="1020" y="965" />
            </Array>
          </mxGeometry>
        </mxCell>
        <mxCell id="Z6kF9D4gKEcNxFJI6eMI-96" style="edgeStyle=orthogonalEdgeStyle;rounded=0;orthogonalLoop=1;jettySize=auto;html=1;fontSize=15;endArrow=ERzeroToMany;endFill=0;startArrow=ERzeroToOne;startFill=0;" parent="1" source="ee2IhAGhDenbNyClMT5V-13" target="TGQOu_SkaZhyXz0knh_N-5" edge="1">
          <mxGeometry relative="1" as="geometry">
            <mxPoint x="1030" y="320" as="sourcePoint" />
            <mxPoint x="670" y="320" as="targetPoint" />
          </mxGeometry>
        </mxCell>
        <mxCell id="Z6kF9D4gKEcNxFJI6eMI-97" style="edgeStyle=orthogonalEdgeStyle;rounded=0;orthogonalLoop=1;jettySize=auto;html=1;fontSize=15;endArrow=ERzeroToMany;endFill=0;startArrow=ERzeroToOne;startFill=0;" parent="1" source="TGQOu_SkaZhyXz0knh_N-30" target="TGQOu_SkaZhyXz0knh_N-8" edge="1">
          <mxGeometry relative="1" as="geometry">
            <mxPoint x="930" y="340" as="sourcePoint" />
            <mxPoint x="570" y="340" as="targetPoint" />
          </mxGeometry>
        </mxCell>
        <mxCell id="Z6kF9D4gKEcNxFJI6eMI-98" value="&lt;b&gt;Fecha&lt;/b&gt;" style="shape=table;startSize=30;container=1;collapsible=1;childLayout=tableLayout;fixedRows=1;rowLines=0;fontStyle=1;align=center;resizeLast=1;dashed=1;fontSize=15;html=1;" parent="1" vertex="1">
          <mxGeometry x="480" y="1040" width="210" height="160" as="geometry" />
        </mxCell>
        <mxCell id="Z6kF9D4gKEcNxFJI6eMI-99" value="" style="shape=tableRow;horizontal=0;startSize=0;swimlaneHead=0;swimlaneBody=0;fillColor=none;collapsible=0;dropTarget=0;points=[[0,0.5],[1,0.5]];portConstraint=eastwest;top=0;left=0;right=0;bottom=0;dashed=1;fontSize=15;html=1;" parent="Z6kF9D4gKEcNxFJI6eMI-98" vertex="1">
          <mxGeometry y="30" width="210" height="30" as="geometry" />
        </mxCell>
        <mxCell id="Z6kF9D4gKEcNxFJI6eMI-100" value="&lt;b&gt;PK&lt;/b&gt;" style="shape=partialRectangle;connectable=0;fillColor=none;top=0;left=0;bottom=0;right=0;editable=1;overflow=hidden;dashed=1;fontSize=15;html=1;" parent="Z6kF9D4gKEcNxFJI6eMI-99" vertex="1">
          <mxGeometry width="30" height="30" as="geometry">
            <mxRectangle width="30" height="30" as="alternateBounds" />
          </mxGeometry>
        </mxCell>
        <mxCell id="Z6kF9D4gKEcNxFJI6eMI-101" value="&lt;b&gt;id_fecha&lt;/b&gt;" style="shape=partialRectangle;connectable=0;fillColor=none;top=0;left=0;bottom=0;right=0;align=left;spacingLeft=6;overflow=hidden;dashed=1;fontSize=15;html=1;" parent="Z6kF9D4gKEcNxFJI6eMI-99" vertex="1">
          <mxGeometry x="30" width="180" height="30" as="geometry">
            <mxRectangle width="180" height="30" as="alternateBounds" />
          </mxGeometry>
        </mxCell>
        <mxCell id="Z6kF9D4gKEcNxFJI6eMI-102" value="" style="shape=tableRow;horizontal=0;startSize=0;swimlaneHead=0;swimlaneBody=0;fillColor=none;collapsible=0;dropTarget=0;points=[[0,0.5],[1,0.5]];portConstraint=eastwest;top=0;left=0;right=0;bottom=0;dashed=1;fontSize=15;html=1;" parent="Z6kF9D4gKEcNxFJI6eMI-98" vertex="1">
          <mxGeometry y="60" width="210" height="30" as="geometry" />
        </mxCell>
        <mxCell id="Z6kF9D4gKEcNxFJI6eMI-103" value="" style="shape=partialRectangle;connectable=0;fillColor=none;top=0;left=0;bottom=0;right=0;editable=1;overflow=hidden;dashed=1;fontSize=15;html=1;" parent="Z6kF9D4gKEcNxFJI6eMI-102" vertex="1">
          <mxGeometry width="30" height="30" as="geometry">
            <mxRectangle width="30" height="30" as="alternateBounds" />
          </mxGeometry>
        </mxCell>
        <mxCell id="Z6kF9D4gKEcNxFJI6eMI-104" value="dia_fecha" style="shape=partialRectangle;connectable=0;fillColor=none;top=0;left=0;bottom=0;right=0;align=left;spacingLeft=6;overflow=hidden;dashed=1;fontSize=15;html=1;" parent="Z6kF9D4gKEcNxFJI6eMI-102" vertex="1">
          <mxGeometry x="30" width="180" height="30" as="geometry">
            <mxRectangle width="180" height="30" as="alternateBounds" />
          </mxGeometry>
        </mxCell>
        <mxCell id="Z6kF9D4gKEcNxFJI6eMI-105" style="shape=tableRow;horizontal=0;startSize=0;swimlaneHead=0;swimlaneBody=0;fillColor=none;collapsible=0;dropTarget=0;points=[[0,0.5],[1,0.5]];portConstraint=eastwest;top=0;left=0;right=0;bottom=0;dashed=1;fontSize=15;html=1;" parent="Z6kF9D4gKEcNxFJI6eMI-98" vertex="1">
          <mxGeometry y="90" width="210" height="30" as="geometry" />
        </mxCell>
        <mxCell id="Z6kF9D4gKEcNxFJI6eMI-106" style="shape=partialRectangle;connectable=0;fillColor=none;top=0;left=0;bottom=0;right=0;editable=1;overflow=hidden;dashed=1;fontSize=15;html=1;" parent="Z6kF9D4gKEcNxFJI6eMI-105" vertex="1">
          <mxGeometry width="30" height="30" as="geometry">
            <mxRectangle width="30" height="30" as="alternateBounds" />
          </mxGeometry>
        </mxCell>
        <mxCell id="Z6kF9D4gKEcNxFJI6eMI-107" value="mes_fecha" style="shape=partialRectangle;connectable=0;fillColor=none;top=0;left=0;bottom=0;right=0;align=left;spacingLeft=6;overflow=hidden;dashed=1;fontSize=15;html=1;" parent="Z6kF9D4gKEcNxFJI6eMI-105" vertex="1">
          <mxGeometry x="30" width="180" height="30" as="geometry">
            <mxRectangle width="180" height="30" as="alternateBounds" />
          </mxGeometry>
        </mxCell>
        <mxCell id="Z6kF9D4gKEcNxFJI6eMI-108" style="shape=tableRow;horizontal=0;startSize=0;swimlaneHead=0;swimlaneBody=0;fillColor=none;collapsible=0;dropTarget=0;points=[[0,0.5],[1,0.5]];portConstraint=eastwest;top=0;left=0;right=0;bottom=0;dashed=1;fontSize=15;html=1;" parent="Z6kF9D4gKEcNxFJI6eMI-98" vertex="1">
          <mxGeometry y="120" width="210" height="30" as="geometry" />
        </mxCell>
        <mxCell id="Z6kF9D4gKEcNxFJI6eMI-109" style="shape=partialRectangle;connectable=0;fillColor=none;top=0;left=0;bottom=0;right=0;editable=1;overflow=hidden;dashed=1;fontSize=15;html=1;" parent="Z6kF9D4gKEcNxFJI6eMI-108" vertex="1">
          <mxGeometry width="30" height="30" as="geometry">
            <mxRectangle width="30" height="30" as="alternateBounds" />
          </mxGeometry>
        </mxCell>
        <mxCell id="Z6kF9D4gKEcNxFJI6eMI-110" value="agno_fecha" style="shape=partialRectangle;connectable=0;fillColor=none;top=0;left=0;bottom=0;right=0;align=left;spacingLeft=6;overflow=hidden;dashed=1;fontSize=15;html=1;" parent="Z6kF9D4gKEcNxFJI6eMI-108" vertex="1">
          <mxGeometry x="30" width="180" height="30" as="geometry">
            <mxRectangle width="180" height="30" as="alternateBounds" />
          </mxGeometry>
        </mxCell>
        <mxCell id="Z6kF9D4gKEcNxFJI6eMI-119" style="edgeStyle=orthogonalEdgeStyle;rounded=0;orthogonalLoop=1;jettySize=auto;html=1;fontSize=15;endArrow=ERzeroToOne;endFill=0;startArrow=ERzeroToOne;startFill=0;entryX=1;entryY=0.5;entryDx=0;entryDy=0;" parent="1" source="Z6kF9D4gKEcNxFJI6eMI-99" target="TGQOu_SkaZhyXz0knh_N-46" edge="1">
          <mxGeometry relative="1" as="geometry">
            <mxPoint x="1070" y="1130" as="sourcePoint" />
            <mxPoint x="770" y="1160" as="targetPoint" />
          </mxGeometry>
        </mxCell>
        <mxCell id="Z6kF9D4gKEcNxFJI6eMI-120" style="edgeStyle=orthogonalEdgeStyle;rounded=0;orthogonalLoop=1;jettySize=auto;html=1;fontSize=15;endArrow=ERzeroToOne;endFill=0;startArrow=ERzeroToOne;startFill=0;" parent="1" source="Z6kF9D4gKEcNxFJI6eMI-99" target="TGQOu_SkaZhyXz0knh_N-136" edge="1">
          <mxGeometry relative="1" as="geometry">
            <mxPoint x="500" y="1095" as="sourcePoint" />
            <mxPoint x="440" y="685" as="targetPoint" />
          </mxGeometry>
        </mxCell>
        <mxCell id="P3HriAm-6b6f0UKXOZIM-1" style="edgeStyle=orthogonalEdgeStyle;rounded=0;orthogonalLoop=1;jettySize=auto;html=1;fontSize=15;endArrow=ERzeroToOne;endFill=0;startArrow=ERzeroToOne;startFill=0;entryX=1;entryY=0.5;entryDx=0;entryDy=0;exitX=1;exitY=0.5;exitDx=0;exitDy=0;" parent="1" source="ee2IhAGhDenbNyClMT5V-41" target="Z6kF9D4gKEcNxFJI6eMI-65" edge="1">
          <mxGeometry relative="1" as="geometry">
            <mxPoint x="950" y="685" as="sourcePoint" />
            <mxPoint x="1220" y="825" as="targetPoint" />
            <Array as="points">
              <mxPoint x="420" y="225" />
              <mxPoint x="420" y="290" />
              <mxPoint x="1440" y="290" />
              <mxPoint x="1440" y="815" />
            </Array>
          </mxGeometry>
        </mxCell>
      </root>
    </mxGraphModel>
  </diagram>
  <diagram id="NCh4oBmM9APoLs2Gsict" name="Diagrama entidad relacion">
    <mxGraphModel dx="2249" dy="752" grid="1" gridSize="10" guides="1" tooltips="1" connect="1" arrows="1" fold="1" page="1" pageScale="1" pageWidth="827" pageHeight="1169" math="0" shadow="0">
      <root>
        <mxCell id="OC3763Bib24QmHlfgEVo-0" />
        <mxCell id="OC3763Bib24QmHlfgEVo-1" parent="OC3763Bib24QmHlfgEVo-0" />
        <mxCell id="xJ4l-KhMbJF52oL8Yz-a-4" style="edgeStyle=orthogonalEdgeStyle;rounded=0;orthogonalLoop=1;jettySize=auto;html=1;endArrow=none;endFill=0;" edge="1" parent="OC3763Bib24QmHlfgEVo-1" source="xJ4l-KhMbJF52oL8Yz-a-0" target="xJ4l-KhMbJF52oL8Yz-a-3">
          <mxGeometry relative="1" as="geometry" />
        </mxCell>
        <mxCell id="xJ4l-KhMbJF52oL8Yz-a-8" style="edgeStyle=orthogonalEdgeStyle;rounded=0;orthogonalLoop=1;jettySize=auto;html=1;endArrow=none;endFill=0;" edge="1" parent="OC3763Bib24QmHlfgEVo-1" source="xJ4l-KhMbJF52oL8Yz-a-0" target="xJ4l-KhMbJF52oL8Yz-a-6">
          <mxGeometry relative="1" as="geometry" />
        </mxCell>
        <mxCell id="xJ4l-KhMbJF52oL8Yz-a-0" value="Usuario" style="whiteSpace=wrap;html=1;align=center;" vertex="1" parent="OC3763Bib24QmHlfgEVo-1">
          <mxGeometry x="360" y="280" width="100" height="40" as="geometry" />
        </mxCell>
        <mxCell id="xJ4l-KhMbJF52oL8Yz-a-1" value="Rol" style="whiteSpace=wrap;html=1;align=center;" vertex="1" parent="OC3763Bib24QmHlfgEVo-1">
          <mxGeometry x="-130" y="280" width="100" height="40" as="geometry" />
        </mxCell>
        <mxCell id="xJ4l-KhMbJF52oL8Yz-a-55" style="edgeStyle=none;rounded=0;orthogonalLoop=1;jettySize=auto;html=1;fontSize=12;endArrow=none;endFill=0;" edge="1" parent="OC3763Bib24QmHlfgEVo-1" source="xJ4l-KhMbJF52oL8Yz-a-2" target="xJ4l-KhMbJF52oL8Yz-a-46">
          <mxGeometry relative="1" as="geometry" />
        </mxCell>
        <mxCell id="xJ4l-KhMbJF52oL8Yz-a-56" style="edgeStyle=none;rounded=0;orthogonalLoop=1;jettySize=auto;html=1;fontSize=12;endArrow=none;endFill=0;" edge="1" parent="OC3763Bib24QmHlfgEVo-1" source="xJ4l-KhMbJF52oL8Yz-a-2" target="xJ4l-KhMbJF52oL8Yz-a-39">
          <mxGeometry relative="1" as="geometry" />
        </mxCell>
        <mxCell id="xJ4l-KhMbJF52oL8Yz-a-57" style="edgeStyle=none;rounded=0;orthogonalLoop=1;jettySize=auto;html=1;fontSize=12;endArrow=none;endFill=0;" edge="1" parent="OC3763Bib24QmHlfgEVo-1" source="xJ4l-KhMbJF52oL8Yz-a-2" target="JMiC0IcJK0I7wgxFf55M-25">
          <mxGeometry relative="1" as="geometry">
            <mxPoint x="1351.1098792961188" y="274.1905817746185" as="targetPoint" />
          </mxGeometry>
        </mxCell>
        <mxCell id="xJ4l-KhMbJF52oL8Yz-a-58" style="edgeStyle=none;rounded=0;orthogonalLoop=1;jettySize=auto;html=1;fontSize=12;endArrow=none;endFill=0;" edge="1" parent="OC3763Bib24QmHlfgEVo-1" source="xJ4l-KhMbJF52oL8Yz-a-2" target="xJ4l-KhMbJF52oL8Yz-a-53">
          <mxGeometry relative="1" as="geometry" />
        </mxCell>
        <mxCell id="xJ4l-KhMbJF52oL8Yz-a-59" style="edgeStyle=none;rounded=0;orthogonalLoop=1;jettySize=auto;html=1;fontSize=12;endArrow=none;endFill=0;" edge="1" parent="OC3763Bib24QmHlfgEVo-1" source="xJ4l-KhMbJF52oL8Yz-a-2" target="xJ4l-KhMbJF52oL8Yz-a-23">
          <mxGeometry relative="1" as="geometry" />
        </mxCell>
        <mxCell id="xJ4l-KhMbJF52oL8Yz-a-60" style="edgeStyle=none;rounded=0;orthogonalLoop=1;jettySize=auto;html=1;fontSize=12;endArrow=none;endFill=0;" edge="1" parent="OC3763Bib24QmHlfgEVo-1" source="xJ4l-KhMbJF52oL8Yz-a-2" target="xJ4l-KhMbJF52oL8Yz-a-25">
          <mxGeometry relative="1" as="geometry" />
        </mxCell>
        <mxCell id="xJ4l-KhMbJF52oL8Yz-a-61" style="edgeStyle=none;rounded=0;orthogonalLoop=1;jettySize=auto;html=1;fontSize=12;endArrow=none;endFill=0;" edge="1" parent="OC3763Bib24QmHlfgEVo-1" source="xJ4l-KhMbJF52oL8Yz-a-2" target="xJ4l-KhMbJF52oL8Yz-a-41">
          <mxGeometry relative="1" as="geometry" />
        </mxCell>
        <mxCell id="xJ4l-KhMbJF52oL8Yz-a-62" style="edgeStyle=none;rounded=0;orthogonalLoop=1;jettySize=auto;html=1;fontSize=12;endArrow=none;endFill=0;" edge="1" parent="OC3763Bib24QmHlfgEVo-1" source="xJ4l-KhMbJF52oL8Yz-a-2" target="xJ4l-KhMbJF52oL8Yz-a-51">
          <mxGeometry relative="1" as="geometry" />
        </mxCell>
        <mxCell id="xJ4l-KhMbJF52oL8Yz-a-63" style="edgeStyle=none;rounded=0;orthogonalLoop=1;jettySize=auto;html=1;fontSize=12;endArrow=none;endFill=0;" edge="1" parent="OC3763Bib24QmHlfgEVo-1" source="xJ4l-KhMbJF52oL8Yz-a-2" target="xJ4l-KhMbJF52oL8Yz-a-47">
          <mxGeometry relative="1" as="geometry" />
        </mxCell>
        <mxCell id="xJ4l-KhMbJF52oL8Yz-a-64" style="edgeStyle=none;rounded=0;orthogonalLoop=1;jettySize=auto;html=1;fontSize=12;endArrow=none;endFill=0;" edge="1" parent="OC3763Bib24QmHlfgEVo-1" source="xJ4l-KhMbJF52oL8Yz-a-2" target="xJ4l-KhMbJF52oL8Yz-a-48">
          <mxGeometry relative="1" as="geometry" />
        </mxCell>
        <mxCell id="xJ4l-KhMbJF52oL8Yz-a-65" style="edgeStyle=none;rounded=0;orthogonalLoop=1;jettySize=auto;html=1;fontSize=12;endArrow=none;endFill=0;" edge="1" parent="OC3763Bib24QmHlfgEVo-1" source="xJ4l-KhMbJF52oL8Yz-a-2" target="xJ4l-KhMbJF52oL8Yz-a-49">
          <mxGeometry relative="1" as="geometry" />
        </mxCell>
        <mxCell id="xJ4l-KhMbJF52oL8Yz-a-79" style="edgeStyle=none;rounded=0;orthogonalLoop=1;jettySize=auto;html=1;fontSize=12;endArrow=none;endFill=0;" edge="1" parent="OC3763Bib24QmHlfgEVo-1" source="xJ4l-KhMbJF52oL8Yz-a-2" target="xJ4l-KhMbJF52oL8Yz-a-78">
          <mxGeometry relative="1" as="geometry" />
        </mxCell>
        <mxCell id="xJ4l-KhMbJF52oL8Yz-a-2" value="Consultante" style="whiteSpace=wrap;html=1;align=center;" vertex="1" parent="OC3763Bib24QmHlfgEVo-1">
          <mxGeometry x="1000" y="280" width="100" height="40" as="geometry" />
        </mxCell>
        <mxCell id="xJ4l-KhMbJF52oL8Yz-a-5" style="edgeStyle=orthogonalEdgeStyle;rounded=0;orthogonalLoop=1;jettySize=auto;html=1;entryX=1;entryY=0.5;entryDx=0;entryDy=0;endArrow=none;endFill=0;" edge="1" parent="OC3763Bib24QmHlfgEVo-1" source="xJ4l-KhMbJF52oL8Yz-a-3" target="xJ4l-KhMbJF52oL8Yz-a-1">
          <mxGeometry relative="1" as="geometry" />
        </mxCell>
        <mxCell id="xJ4l-KhMbJF52oL8Yz-a-3" value="Tiene" style="shape=rhombus;perimeter=rhombusPerimeter;whiteSpace=wrap;html=1;align=center;" vertex="1" parent="OC3763Bib24QmHlfgEVo-1">
          <mxGeometry x="90" y="270" width="120" height="60" as="geometry" />
        </mxCell>
        <mxCell id="xJ4l-KhMbJF52oL8Yz-a-9" style="edgeStyle=orthogonalEdgeStyle;rounded=0;orthogonalLoop=1;jettySize=auto;html=1;endArrow=none;endFill=0;" edge="1" parent="OC3763Bib24QmHlfgEVo-1" source="xJ4l-KhMbJF52oL8Yz-a-6" target="xJ4l-KhMbJF52oL8Yz-a-2">
          <mxGeometry relative="1" as="geometry" />
        </mxCell>
        <mxCell id="xJ4l-KhMbJF52oL8Yz-a-6" value="Gestiona" style="shape=rhombus;perimeter=rhombusPerimeter;whiteSpace=wrap;html=1;align=center;" vertex="1" parent="OC3763Bib24QmHlfgEVo-1">
          <mxGeometry x="670" y="270" width="120" height="60" as="geometry" />
        </mxCell>
        <mxCell id="xJ4l-KhMbJF52oL8Yz-a-13" style="rounded=0;orthogonalLoop=1;jettySize=auto;html=1;endArrow=none;endFill=0;" edge="1" parent="OC3763Bib24QmHlfgEVo-1" source="xJ4l-KhMbJF52oL8Yz-a-12" target="xJ4l-KhMbJF52oL8Yz-a-1">
          <mxGeometry relative="1" as="geometry" />
        </mxCell>
        <mxCell id="xJ4l-KhMbJF52oL8Yz-a-12" value="tipo" style="ellipse;whiteSpace=wrap;html=1;align=center;" vertex="1" parent="OC3763Bib24QmHlfgEVo-1">
          <mxGeometry x="-280" y="220" width="100" height="40" as="geometry" />
        </mxCell>
        <mxCell id="xJ4l-KhMbJF52oL8Yz-a-15" style="edgeStyle=none;rounded=0;orthogonalLoop=1;jettySize=auto;html=1;endArrow=none;endFill=0;" edge="1" parent="OC3763Bib24QmHlfgEVo-1" source="xJ4l-KhMbJF52oL8Yz-a-14" target="xJ4l-KhMbJF52oL8Yz-a-1">
          <mxGeometry relative="1" as="geometry" />
        </mxCell>
        <mxCell id="xJ4l-KhMbJF52oL8Yz-a-14" value="id" style="ellipse;whiteSpace=wrap;html=1;align=center;fontStyle=4;" vertex="1" parent="OC3763Bib24QmHlfgEVo-1">
          <mxGeometry x="-280" y="350" width="100" height="40" as="geometry" />
        </mxCell>
        <mxCell id="xJ4l-KhMbJF52oL8Yz-a-38" style="edgeStyle=none;rounded=0;orthogonalLoop=1;jettySize=auto;html=1;endArrow=none;endFill=0;" edge="1" parent="OC3763Bib24QmHlfgEVo-1" source="xJ4l-KhMbJF52oL8Yz-a-16" target="xJ4l-KhMbJF52oL8Yz-a-0">
          <mxGeometry relative="1" as="geometry" />
        </mxCell>
        <mxCell id="xJ4l-KhMbJF52oL8Yz-a-16" value="reTHUS" style="ellipse;whiteSpace=wrap;html=1;align=center;" vertex="1" parent="OC3763Bib24QmHlfgEVo-1">
          <mxGeometry x="650" y="180" width="100" height="40" as="geometry" />
        </mxCell>
        <mxCell id="xJ4l-KhMbJF52oL8Yz-a-35" style="edgeStyle=none;rounded=0;orthogonalLoop=1;jettySize=auto;html=1;endArrow=none;endFill=0;" edge="1" parent="OC3763Bib24QmHlfgEVo-1" source="xJ4l-KhMbJF52oL8Yz-a-18" target="xJ4l-KhMbJF52oL8Yz-a-0">
          <mxGeometry relative="1" as="geometry" />
        </mxCell>
        <mxCell id="xJ4l-KhMbJF52oL8Yz-a-18" value="correo" style="ellipse;whiteSpace=wrap;html=1;align=center;" vertex="1" parent="OC3763Bib24QmHlfgEVo-1">
          <mxGeometry x="490" y="40" width="100" height="40" as="geometry" />
        </mxCell>
        <mxCell id="xJ4l-KhMbJF52oL8Yz-a-34" style="edgeStyle=none;rounded=0;orthogonalLoop=1;jettySize=auto;html=1;endArrow=none;endFill=0;" edge="1" parent="OC3763Bib24QmHlfgEVo-1" source="xJ4l-KhMbJF52oL8Yz-a-19" target="xJ4l-KhMbJF52oL8Yz-a-0">
          <mxGeometry relative="1" as="geometry" />
        </mxCell>
        <mxCell id="xJ4l-KhMbJF52oL8Yz-a-19" value="apellidos" style="ellipse;whiteSpace=wrap;html=1;align=center;" vertex="1" parent="OC3763Bib24QmHlfgEVo-1">
          <mxGeometry x="380" y="30" width="100" height="40" as="geometry" />
        </mxCell>
        <mxCell id="xJ4l-KhMbJF52oL8Yz-a-33" style="edgeStyle=none;rounded=0;orthogonalLoop=1;jettySize=auto;html=1;endArrow=none;endFill=0;" edge="1" parent="OC3763Bib24QmHlfgEVo-1" source="xJ4l-KhMbJF52oL8Yz-a-20" target="xJ4l-KhMbJF52oL8Yz-a-0">
          <mxGeometry relative="1" as="geometry" />
        </mxCell>
        <mxCell id="xJ4l-KhMbJF52oL8Yz-a-20" value="nombres" style="ellipse;whiteSpace=wrap;html=1;align=center;" vertex="1" parent="OC3763Bib24QmHlfgEVo-1">
          <mxGeometry x="260" y="30" width="100" height="40" as="geometry" />
        </mxCell>
        <mxCell id="xJ4l-KhMbJF52oL8Yz-a-31" style="edgeStyle=none;rounded=0;orthogonalLoop=1;jettySize=auto;html=1;endArrow=none;endFill=0;" edge="1" parent="OC3763Bib24QmHlfgEVo-1" source="xJ4l-KhMbJF52oL8Yz-a-21" target="xJ4l-KhMbJF52oL8Yz-a-0">
          <mxGeometry relative="1" as="geometry" />
        </mxCell>
        <mxCell id="xJ4l-KhMbJF52oL8Yz-a-21" value="login" style="ellipse;whiteSpace=wrap;html=1;align=center;" vertex="1" parent="OC3763Bib24QmHlfgEVo-1">
          <mxGeometry x="120" y="120" width="100" height="40" as="geometry" />
        </mxCell>
        <mxCell id="xJ4l-KhMbJF52oL8Yz-a-32" style="edgeStyle=none;rounded=0;orthogonalLoop=1;jettySize=auto;html=1;endArrow=none;endFill=0;" edge="1" parent="OC3763Bib24QmHlfgEVo-1" source="xJ4l-KhMbJF52oL8Yz-a-22" target="xJ4l-KhMbJF52oL8Yz-a-0">
          <mxGeometry relative="1" as="geometry" />
        </mxCell>
        <mxCell id="xJ4l-KhMbJF52oL8Yz-a-22" value="password" style="ellipse;whiteSpace=wrap;html=1;align=center;" vertex="1" parent="OC3763Bib24QmHlfgEVo-1">
          <mxGeometry x="170" y="70" width="100" height="40" as="geometry" />
        </mxCell>
        <mxCell id="xJ4l-KhMbJF52oL8Yz-a-23" value="apellidos" style="ellipse;whiteSpace=wrap;html=1;align=center;" vertex="1" parent="OC3763Bib24QmHlfgEVo-1">
          <mxGeometry x="1340" y="370" width="100" height="40" as="geometry" />
        </mxCell>
        <mxCell id="xJ4l-KhMbJF52oL8Yz-a-25" value="nombres" style="ellipse;whiteSpace=wrap;html=1;align=center;" vertex="1" parent="OC3763Bib24QmHlfgEVo-1">
          <mxGeometry x="1290" y="410" width="100" height="40" as="geometry" />
        </mxCell>
        <mxCell id="xJ4l-KhMbJF52oL8Yz-a-36" style="edgeStyle=none;rounded=0;orthogonalLoop=1;jettySize=auto;html=1;endArrow=none;endFill=0;" edge="1" parent="OC3763Bib24QmHlfgEVo-1" source="xJ4l-KhMbJF52oL8Yz-a-26" target="xJ4l-KhMbJF52oL8Yz-a-0">
          <mxGeometry relative="1" as="geometry" />
        </mxCell>
        <mxCell id="xJ4l-KhMbJF52oL8Yz-a-26" value="tarjetaProf" style="ellipse;whiteSpace=wrap;html=1;align=center;" vertex="1" parent="OC3763Bib24QmHlfgEVo-1">
          <mxGeometry x="590" y="70" width="100" height="40" as="geometry" />
        </mxCell>
        <mxCell id="xJ4l-KhMbJF52oL8Yz-a-37" style="edgeStyle=none;rounded=0;orthogonalLoop=1;jettySize=auto;html=1;endArrow=none;endFill=0;" edge="1" parent="OC3763Bib24QmHlfgEVo-1" source="CE28-Cmi-5Rtsa2CPiwV-1" target="xJ4l-KhMbJF52oL8Yz-a-0">
          <mxGeometry relative="1" as="geometry">
            <mxPoint x="661.3268827818442" y="156.38463841037492" as="sourcePoint" />
          </mxGeometry>
        </mxCell>
        <mxCell id="xJ4l-KhMbJF52oL8Yz-a-30" style="edgeStyle=none;rounded=0;orthogonalLoop=1;jettySize=auto;html=1;endArrow=none;endFill=0;" edge="1" parent="OC3763Bib24QmHlfgEVo-1" source="xJ4l-KhMbJF52oL8Yz-a-29" target="xJ4l-KhMbJF52oL8Yz-a-0">
          <mxGeometry relative="1" as="geometry" />
        </mxCell>
        <mxCell id="xJ4l-KhMbJF52oL8Yz-a-29" value="id" style="ellipse;whiteSpace=wrap;html=1;align=center;fontStyle=4;" vertex="1" parent="OC3763Bib24QmHlfgEVo-1">
          <mxGeometry x="80" y="180" width="100" height="40" as="geometry" />
        </mxCell>
        <mxCell id="xJ4l-KhMbJF52oL8Yz-a-39" value="genero" style="ellipse;whiteSpace=wrap;html=1;align=center;" vertex="1" parent="OC3763Bib24QmHlfgEVo-1">
          <mxGeometry x="1310" y="150" width="100" height="40" as="geometry" />
        </mxCell>
        <mxCell id="xJ4l-KhMbJF52oL8Yz-a-40" value="localidad" style="ellipse;whiteSpace=wrap;html=1;align=center;dashed=1;" vertex="1" parent="OC3763Bib24QmHlfgEVo-1">
          <mxGeometry x="1660" y="400" width="100" height="40" as="geometry" />
        </mxCell>
        <mxCell id="xJ4l-KhMbJF52oL8Yz-a-71" style="edgeStyle=none;rounded=0;orthogonalLoop=1;jettySize=auto;html=1;exitX=0.5;exitY=1;exitDx=0;exitDy=0;fontSize=12;endArrow=none;endFill=0;" edge="1" parent="OC3763Bib24QmHlfgEVo-1" source="xJ4l-KhMbJF52oL8Yz-a-41">
          <mxGeometry relative="1" as="geometry">
            <mxPoint x="1180" y="510" as="targetPoint" />
          </mxGeometry>
        </mxCell>
        <mxCell id="xJ4l-KhMbJF52oL8Yz-a-41" value="tipoDocumento" style="ellipse;align=center;whiteSpace=wrap;html=1;" vertex="1" parent="OC3763Bib24QmHlfgEVo-1">
          <mxGeometry x="1110" y="470" width="100" height="40" as="geometry" />
        </mxCell>
        <mxCell id="xJ4l-KhMbJF52oL8Yz-a-42" value="barrio" style="ellipse;whiteSpace=wrap;html=1;align=center;dashed=1;" vertex="1" parent="OC3763Bib24QmHlfgEVo-1">
          <mxGeometry x="1660" y="480" width="100" height="40" as="geometry" />
        </mxCell>
        <mxCell id="xJ4l-KhMbJF52oL8Yz-a-46" value="sexo" style="ellipse;whiteSpace=wrap;html=1;align=center;" vertex="1" parent="OC3763Bib24QmHlfgEVo-1">
          <mxGeometry x="1080" y="70" width="100" height="40" as="geometry" />
        </mxCell>
        <mxCell id="xJ4l-KhMbJF52oL8Yz-a-47" value="estadoCivil" style="ellipse;whiteSpace=wrap;html=1;align=center;" vertex="1" parent="OC3763Bib24QmHlfgEVo-1">
          <mxGeometry x="970" y="60" width="100" height="40" as="geometry" />
        </mxCell>
        <mxCell id="xJ4l-KhMbJF52oL8Yz-a-48" value="escolaridad" style="ellipse;whiteSpace=wrap;html=1;align=center;" vertex="1" parent="OC3763Bib24QmHlfgEVo-1">
          <mxGeometry x="1180" y="80" width="100" height="40" as="geometry" />
        </mxCell>
        <mxCell id="xJ4l-KhMbJF52oL8Yz-a-49" value="ocupacion" style="ellipse;whiteSpace=wrap;html=1;align=center;" vertex="1" parent="OC3763Bib24QmHlfgEVo-1">
          <mxGeometry x="1330" y="200" width="100" height="40" as="geometry" />
        </mxCell>
        <mxCell id="xJ4l-KhMbJF52oL8Yz-a-51" value="id" style="ellipse;whiteSpace=wrap;html=1;align=center;fontStyle=4;" vertex="1" parent="OC3763Bib24QmHlfgEVo-1">
          <mxGeometry x="990" y="470" width="100" height="40" as="geometry" />
        </mxCell>
        <mxCell id="xJ4l-KhMbJF52oL8Yz-a-52" value="pais" style="ellipse;whiteSpace=wrap;html=1;align=center;dashed=1;" vertex="1" parent="OC3763Bib24QmHlfgEVo-1">
          <mxGeometry x="1660" y="340" width="100" height="40" as="geometry" />
        </mxCell>
        <mxCell id="xJ4l-KhMbJF52oL8Yz-a-66" style="edgeStyle=none;rounded=0;orthogonalLoop=1;jettySize=auto;html=1;entryX=0;entryY=1;entryDx=0;entryDy=0;fontSize=12;endArrow=none;endFill=0;" edge="1" parent="OC3763Bib24QmHlfgEVo-1" source="xJ4l-KhMbJF52oL8Yz-a-53" target="xJ4l-KhMbJF52oL8Yz-a-52">
          <mxGeometry relative="1" as="geometry" />
        </mxCell>
        <mxCell id="xJ4l-KhMbJF52oL8Yz-a-67" style="edgeStyle=none;rounded=0;orthogonalLoop=1;jettySize=auto;html=1;entryX=0.063;entryY=0.742;entryDx=0;entryDy=0;entryPerimeter=0;fontSize=12;endArrow=none;endFill=0;" edge="1" parent="OC3763Bib24QmHlfgEVo-1" source="xJ4l-KhMbJF52oL8Yz-a-53" target="xJ4l-KhMbJF52oL8Yz-a-40">
          <mxGeometry relative="1" as="geometry" />
        </mxCell>
        <mxCell id="xJ4l-KhMbJF52oL8Yz-a-68" style="edgeStyle=none;rounded=0;orthogonalLoop=1;jettySize=auto;html=1;fontSize=12;endArrow=none;endFill=0;" edge="1" parent="OC3763Bib24QmHlfgEVo-1" source="xJ4l-KhMbJF52oL8Yz-a-53" target="xJ4l-KhMbJF52oL8Yz-a-42">
          <mxGeometry relative="1" as="geometry" />
        </mxCell>
        <mxCell id="xJ4l-KhMbJF52oL8Yz-a-69" style="edgeStyle=none;rounded=0;orthogonalLoop=1;jettySize=auto;html=1;fontSize=12;endArrow=none;endFill=0;" edge="1" parent="OC3763Bib24QmHlfgEVo-1" source="xJ4l-KhMbJF52oL8Yz-a-53" target="xJ4l-KhMbJF52oL8Yz-a-54">
          <mxGeometry relative="1" as="geometry" />
        </mxCell>
        <mxCell id="xJ4l-KhMbJF52oL8Yz-a-53" value="direccion" style="ellipse;shape=doubleEllipse;margin=3;whiteSpace=wrap;html=1;align=center;fontSize=12;" vertex="1" parent="OC3763Bib24QmHlfgEVo-1">
          <mxGeometry x="1350" y="310" width="100" height="40" as="geometry" />
        </mxCell>
        <mxCell id="xJ4l-KhMbJF52oL8Yz-a-54" value="ciudad" style="ellipse;whiteSpace=wrap;html=1;align=center;fontSize=12;dashed=1;" vertex="1" parent="OC3763Bib24QmHlfgEVo-1">
          <mxGeometry x="1630" y="550" width="100" height="40" as="geometry" />
        </mxCell>
        <mxCell id="xJ4l-KhMbJF52oL8Yz-a-72" style="edgeStyle=none;rounded=0;orthogonalLoop=1;jettySize=auto;html=1;fontSize=12;endArrow=none;endFill=0;" edge="1" parent="OC3763Bib24QmHlfgEVo-1" source="xJ4l-KhMbJF52oL8Yz-a-74" target="xJ4l-KhMbJF52oL8Yz-a-2">
          <mxGeometry relative="1" as="geometry">
            <mxPoint x="1247.025632435074" y="452.23631373845956" as="sourcePoint" />
          </mxGeometry>
        </mxCell>
        <mxCell id="xJ4l-KhMbJF52oL8Yz-a-73" value="telefonoFijo" style="ellipse;whiteSpace=wrap;html=1;align=center;fontSize=12;dashed=1;" vertex="1" parent="OC3763Bib24QmHlfgEVo-1">
          <mxGeometry x="1270" y="565" width="100" height="40" as="geometry" />
        </mxCell>
        <mxCell id="xJ4l-KhMbJF52oL8Yz-a-76" style="edgeStyle=none;rounded=0;orthogonalLoop=1;jettySize=auto;html=1;fontSize=12;endArrow=none;endFill=0;" edge="1" parent="OC3763Bib24QmHlfgEVo-1" source="xJ4l-KhMbJF52oL8Yz-a-74" target="xJ4l-KhMbJF52oL8Yz-a-73">
          <mxGeometry relative="1" as="geometry" />
        </mxCell>
        <mxCell id="xJ4l-KhMbJF52oL8Yz-a-77" style="edgeStyle=none;rounded=0;orthogonalLoop=1;jettySize=auto;html=1;fontSize=12;endArrow=none;endFill=0;" edge="1" parent="OC3763Bib24QmHlfgEVo-1" source="xJ4l-KhMbJF52oL8Yz-a-74" target="xJ4l-KhMbJF52oL8Yz-a-75">
          <mxGeometry relative="1" as="geometry" />
        </mxCell>
        <mxCell id="xJ4l-KhMbJF52oL8Yz-a-74" value="telefono" style="ellipse;shape=doubleEllipse;margin=3;whiteSpace=wrap;html=1;align=center;fontSize=12;" vertex="1" parent="OC3763Bib24QmHlfgEVo-1">
          <mxGeometry x="1220" y="450" width="100" height="40" as="geometry" />
        </mxCell>
        <mxCell id="xJ4l-KhMbJF52oL8Yz-a-75" value="celular" style="ellipse;whiteSpace=wrap;html=1;align=center;fontSize=12;dashed=1;" vertex="1" parent="OC3763Bib24QmHlfgEVo-1">
          <mxGeometry x="1380" y="520" width="100" height="40" as="geometry" />
        </mxCell>
        <mxCell id="xJ4l-KhMbJF52oL8Yz-a-81" style="edgeStyle=none;rounded=0;orthogonalLoop=1;jettySize=auto;html=1;fontSize=12;endArrow=none;endFill=0;" edge="1" parent="OC3763Bib24QmHlfgEVo-1" source="xJ4l-KhMbJF52oL8Yz-a-78" target="xJ4l-KhMbJF52oL8Yz-a-80">
          <mxGeometry relative="1" as="geometry" />
        </mxCell>
        <mxCell id="xJ4l-KhMbJF52oL8Yz-a-78" value="eps" style="ellipse;shape=doubleEllipse;margin=3;whiteSpace=wrap;html=1;align=center;fontSize=12;" vertex="1" parent="OC3763Bib24QmHlfgEVo-1">
          <mxGeometry x="1270" y="100" width="100" height="40" as="geometry" />
        </mxCell>
        <mxCell id="xJ4l-KhMbJF52oL8Yz-a-80" value="tipoRegimen" style="ellipse;whiteSpace=wrap;html=1;align=center;fontSize=12;dashed=1;" vertex="1" parent="OC3763Bib24QmHlfgEVo-1">
          <mxGeometry x="1410" y="50" width="100" height="40" as="geometry" />
        </mxCell>
        <mxCell id="kWFVy5tIppyhTbkwzvY8-2" value="n" style="edgeLabel;html=1;align=center;verticalAlign=middle;resizable=0;points=[];fontSize=15;" vertex="1" connectable="0" parent="OC3763Bib24QmHlfgEVo-1">
          <mxGeometry x="-20.000000000000046" y="310" as="geometry">
            <mxPoint x="100" y="-20" as="offset" />
          </mxGeometry>
        </mxCell>
        <mxCell id="kWFVy5tIppyhTbkwzvY8-3" value="1" style="edgeLabel;html=1;align=center;verticalAlign=middle;resizable=0;points=[];fontSize=15;" vertex="1" connectable="0" parent="OC3763Bib24QmHlfgEVo-1">
          <mxGeometry x="-120.00000000000004" y="310" as="geometry">
            <mxPoint x="100" y="-20" as="offset" />
          </mxGeometry>
        </mxCell>
        <mxCell id="kWFVy5tIppyhTbkwzvY8-4" value="n" style="edgeLabel;html=1;align=center;verticalAlign=middle;resizable=0;points=[];fontSize=15;" vertex="1" connectable="0" parent="OC3763Bib24QmHlfgEVo-1">
          <mxGeometry x="109.99999999999994" y="310" as="geometry">
            <mxPoint x="100" y="-20" as="offset" />
          </mxGeometry>
        </mxCell>
        <mxCell id="kWFVy5tIppyhTbkwzvY8-5" value="1" style="edgeLabel;html=1;align=center;verticalAlign=middle;resizable=0;points=[];fontSize=15;" vertex="1" connectable="0" parent="OC3763Bib24QmHlfgEVo-1">
          <mxGeometry x="249.99999999999994" y="310" as="geometry">
            <mxPoint x="100" y="-20" as="offset" />
          </mxGeometry>
        </mxCell>
        <mxCell id="kWFVy5tIppyhTbkwzvY8-6" value="(n,m)" style="edgeLabel;html=1;align=center;verticalAlign=middle;resizable=0;points=[];fontSize=15;" vertex="1" connectable="0" parent="OC3763Bib24QmHlfgEVo-1">
          <mxGeometry x="49.99999999999994" y="360" as="geometry">
            <mxPoint x="100" y="-20" as="offset" />
          </mxGeometry>
        </mxCell>
        <mxCell id="kWFVy5tIppyhTbkwzvY8-7" value="n" style="edgeLabel;html=1;align=center;verticalAlign=middle;resizable=0;points=[];fontSize=15;" vertex="1" connectable="0" parent="OC3763Bib24QmHlfgEVo-1">
          <mxGeometry x="557" y="310" as="geometry">
            <mxPoint x="100" y="-20" as="offset" />
          </mxGeometry>
        </mxCell>
        <mxCell id="kWFVy5tIppyhTbkwzvY8-8" value="1" style="edgeLabel;html=1;align=center;verticalAlign=middle;resizable=0;points=[];fontSize=15;" vertex="1" connectable="0" parent="OC3763Bib24QmHlfgEVo-1">
          <mxGeometry x="369.99999999999994" y="310" as="geometry">
            <mxPoint x="100" y="-20" as="offset" />
          </mxGeometry>
        </mxCell>
        <mxCell id="kWFVy5tIppyhTbkwzvY8-9" value="n" style="edgeLabel;html=1;align=center;verticalAlign=middle;resizable=0;points=[];fontSize=15;" vertex="1" connectable="0" parent="OC3763Bib24QmHlfgEVo-1">
          <mxGeometry x="700" y="310" as="geometry">
            <mxPoint x="100" y="-20" as="offset" />
          </mxGeometry>
        </mxCell>
        <mxCell id="kWFVy5tIppyhTbkwzvY8-10" value="1" style="edgeLabel;html=1;align=center;verticalAlign=middle;resizable=0;points=[];fontSize=15;" vertex="1" connectable="0" parent="OC3763Bib24QmHlfgEVo-1">
          <mxGeometry x="890" y="310" as="geometry">
            <mxPoint x="100" y="-20" as="offset" />
          </mxGeometry>
        </mxCell>
        <mxCell id="kWFVy5tIppyhTbkwzvY8-11" value="(n,m)" style="edgeLabel;html=1;align=center;verticalAlign=middle;resizable=0;points=[];fontSize=15;" vertex="1" connectable="0" parent="OC3763Bib24QmHlfgEVo-1">
          <mxGeometry x="630" y="360" as="geometry">
            <mxPoint x="100" y="-20" as="offset" />
          </mxGeometry>
        </mxCell>
        <mxCell id="JMiC0IcJK0I7wgxFf55M-0" value="pais" style="ellipse;whiteSpace=wrap;html=1;align=center;dashed=1;" vertex="1" parent="OC3763Bib24QmHlfgEVo-1">
          <mxGeometry x="1660" y="340" width="100" height="40" as="geometry" />
        </mxCell>
        <mxCell id="JMiC0IcJK0I7wgxFf55M-1" value="localidad" style="ellipse;whiteSpace=wrap;html=1;align=center;dashed=1;" vertex="1" parent="OC3763Bib24QmHlfgEVo-1">
          <mxGeometry x="1660" y="400" width="100" height="40" as="geometry" />
        </mxCell>
        <mxCell id="JMiC0IcJK0I7wgxFf55M-2" value="agno" style="ellipse;whiteSpace=wrap;html=1;align=center;dashed=1;" vertex="1" parent="OC3763Bib24QmHlfgEVo-1">
          <mxGeometry x="1620" y="260" width="100" height="40" as="geometry" />
        </mxCell>
        <mxCell id="JMiC0IcJK0I7wgxFf55M-3" value="dia" style="ellipse;whiteSpace=wrap;html=1;align=center;dashed=1;" vertex="1" parent="OC3763Bib24QmHlfgEVo-1">
          <mxGeometry x="1630" y="120" width="100" height="40" as="geometry" />
        </mxCell>
        <mxCell id="JMiC0IcJK0I7wgxFf55M-4" value="mes" style="ellipse;whiteSpace=wrap;html=1;align=center;dashed=1;" vertex="1" parent="OC3763Bib24QmHlfgEVo-1">
          <mxGeometry x="1630" y="190" width="100" height="40" as="geometry" />
        </mxCell>
        <mxCell id="JMiC0IcJK0I7wgxFf55M-6" style="edgeStyle=none;rounded=0;orthogonalLoop=1;jettySize=auto;html=1;fontSize=12;endArrow=none;endFill=0;" edge="1" parent="OC3763Bib24QmHlfgEVo-1" source="JMiC0IcJK0I7wgxFf55M-25" target="JMiC0IcJK0I7wgxFf55M-3">
          <mxGeometry relative="1" as="geometry">
            <mxPoint x="1435.3553390593274" y="255.8578643762694" as="sourcePoint" />
            <mxPoint x="1678.2446609406725" y="220.0021356237313" as="targetPoint" />
          </mxGeometry>
        </mxCell>
        <mxCell id="JMiC0IcJK0I7wgxFf55M-7" style="edgeStyle=none;rounded=0;orthogonalLoop=1;jettySize=auto;html=1;fontSize=12;endArrow=none;endFill=0;" edge="1" parent="OC3763Bib24QmHlfgEVo-1" source="JMiC0IcJK0I7wgxFf55M-25" target="JMiC0IcJK0I7wgxFf55M-4">
          <mxGeometry relative="1" as="geometry">
            <mxPoint x="1444.1436194599623" y="260.6077405404335" as="sourcePoint" />
            <mxPoint x="1659.2288118663232" y="155.76392834717035" as="targetPoint" />
          </mxGeometry>
        </mxCell>
        <mxCell id="JMiC0IcJK0I7wgxFf55M-8" style="edgeStyle=none;rounded=0;orthogonalLoop=1;jettySize=auto;html=1;fontSize=12;endArrow=none;endFill=0;" edge="1" parent="OC3763Bib24QmHlfgEVo-1" source="JMiC0IcJK0I7wgxFf55M-25" target="JMiC0IcJK0I7wgxFf55M-2">
          <mxGeometry relative="1" as="geometry">
            <mxPoint x="1449.794660323404" y="271.81071492085096" as="sourcePoint" />
            <mxPoint x="1669.2288118663232" y="165.76392834717035" as="targetPoint" />
          </mxGeometry>
        </mxCell>
        <mxCell id="JMiC0IcJK0I7wgxFf55M-25" value="&lt;font style=&quot;font-size: 11px&quot;&gt;fechaNacimiento&lt;/font&gt;" style="ellipse;shape=doubleEllipse;margin=3;whiteSpace=wrap;html=1;align=center;fontSize=15;" vertex="1" parent="OC3763Bib24QmHlfgEVo-1">
          <mxGeometry x="1360" y="250" width="90" height="40" as="geometry" />
        </mxCell>
        <mxCell id="CE28-Cmi-5Rtsa2CPiwV-0" value="telefonoFijo" style="ellipse;whiteSpace=wrap;html=1;align=center;fontSize=12;dashed=1;" vertex="1" parent="OC3763Bib24QmHlfgEVo-1">
          <mxGeometry x="810" y="120" width="100" height="40" as="geometry" />
        </mxCell>
        <mxCell id="CE28-Cmi-5Rtsa2CPiwV-1" value="telefono" style="ellipse;shape=doubleEllipse;margin=3;whiteSpace=wrap;html=1;align=center;fontSize=12;" vertex="1" parent="OC3763Bib24QmHlfgEVo-1">
          <mxGeometry x="650" y="120" width="100" height="40" as="geometry" />
        </mxCell>
        <mxCell id="CE28-Cmi-5Rtsa2CPiwV-2" value="celular" style="ellipse;whiteSpace=wrap;html=1;align=center;fontSize=12;dashed=1;" vertex="1" parent="OC3763Bib24QmHlfgEVo-1">
          <mxGeometry x="790" y="40" width="100" height="40" as="geometry" />
        </mxCell>
        <mxCell id="CE28-Cmi-5Rtsa2CPiwV-3" style="edgeStyle=none;rounded=0;orthogonalLoop=1;jettySize=auto;html=1;fontSize=12;endArrow=none;endFill=0;" edge="1" parent="OC3763Bib24QmHlfgEVo-1" source="CE28-Cmi-5Rtsa2CPiwV-1" target="CE28-Cmi-5Rtsa2CPiwV-2">
          <mxGeometry relative="1" as="geometry">
            <mxPoint x="790.0001608578693" y="109.50530831097467" as="sourcePoint" />
            <mxPoint x="790" y="80" as="targetPoint" />
          </mxGeometry>
        </mxCell>
        <mxCell id="CE28-Cmi-5Rtsa2CPiwV-4" style="edgeStyle=none;rounded=0;orthogonalLoop=1;jettySize=auto;html=1;fontSize=12;endArrow=none;endFill=0;" edge="1" parent="OC3763Bib24QmHlfgEVo-1" source="CE28-Cmi-5Rtsa2CPiwV-1" target="CE28-Cmi-5Rtsa2CPiwV-0">
          <mxGeometry relative="1" as="geometry">
            <mxPoint x="738.8035881111778" y="133.6520175585208" as="sourcePoint" />
            <mxPoint x="821.3268827818442" y="86.38463841037446" as="targetPoint" />
          </mxGeometry>
        </mxCell>
      </root>
    </mxGraphModel>
  </diagram>
  <diagram id="E8dlmk8UTCStBLw3wRD-" name="Diagrama caso de uso gestion consulta">
    <mxGraphModel dx="1422" dy="752" grid="1" gridSize="10" guides="1" tooltips="1" connect="1" arrows="1" fold="1" page="1" pageScale="1" pageWidth="827" pageHeight="1169" math="0" shadow="0">
      <root>
        <mxCell id="1_0XsinDyx6rq08LRmwD-0" />
        <mxCell id="1_0XsinDyx6rq08LRmwD-1" parent="1_0XsinDyx6rq08LRmwD-0" />
        <mxCell id="S6vsmFmqJQY59fPpGkdk-0" value="Usuario" style="shape=umlActor;verticalLabelPosition=bottom;verticalAlign=top;html=1;outlineConnect=0;direction=east;" parent="1_0XsinDyx6rq08LRmwD-1" vertex="1">
          <mxGeometry x="90" y="330" width="50" height="80" as="geometry" />
        </mxCell>
        <mxCell id="S6vsmFmqJQY59fPpGkdk-3" value="Diagrama caso de uso Gestion usuario" style="text;strokeColor=none;fillColor=none;html=1;fontSize=24;fontStyle=1;verticalAlign=middle;align=center;" parent="1_0XsinDyx6rq08LRmwD-1" vertex="1">
          <mxGeometry x="423" y="110" width="100" height="40" as="geometry" />
        </mxCell>
        <mxCell id="S6vsmFmqJQY59fPpGkdk-6" value="Inspirar" style="shape=umlFrame;whiteSpace=wrap;html=1;" parent="1_0XsinDyx6rq08LRmwD-1" vertex="1">
          <mxGeometry x="200" y="190" width="546" height="360" as="geometry" />
        </mxCell>
        <mxCell id="S6vsmFmqJQY59fPpGkdk-8" value="Registrar Usuario" style="ellipse;whiteSpace=wrap;html=1;" parent="1_0XsinDyx6rq08LRmwD-1" vertex="1">
          <mxGeometry x="290" y="250" width="140" height="70" as="geometry" />
        </mxCell>
        <mxCell id="S6vsmFmqJQY59fPpGkdk-12" value="Consultar usuario" style="ellipse;whiteSpace=wrap;html=1;" parent="1_0XsinDyx6rq08LRmwD-1" vertex="1">
          <mxGeometry x="290" y="390" width="140" height="70" as="geometry" />
        </mxCell>
        <mxCell id="S6vsmFmqJQY59fPpGkdk-13" value="Modificar Usuario" style="ellipse;whiteSpace=wrap;html=1;" parent="1_0XsinDyx6rq08LRmwD-1" vertex="1">
          <mxGeometry x="520" y="290" width="140" height="70" as="geometry" />
        </mxCell>
        <mxCell id="S6vsmFmqJQY59fPpGkdk-14" value="Inactivar Usuario" style="ellipse;whiteSpace=wrap;html=1;" parent="1_0XsinDyx6rq08LRmwD-1" vertex="1">
          <mxGeometry x="520" y="420" width="140" height="70" as="geometry" />
        </mxCell>
        <mxCell id="S6vsmFmqJQY59fPpGkdk-18" value="" style="endArrow=none;html=1;rounded=0;" parent="1_0XsinDyx6rq08LRmwD-1" source="S6vsmFmqJQY59fPpGkdk-8" target="S6vsmFmqJQY59fPpGkdk-0" edge="1">
          <mxGeometry width="50" height="50" relative="1" as="geometry">
            <mxPoint x="390" y="410" as="sourcePoint" />
            <mxPoint x="440" y="360" as="targetPoint" />
          </mxGeometry>
        </mxCell>
        <mxCell id="S6vsmFmqJQY59fPpGkdk-19" value="" style="endArrow=none;html=1;rounded=0;" parent="1_0XsinDyx6rq08LRmwD-1" source="S6vsmFmqJQY59fPpGkdk-12" target="S6vsmFmqJQY59fPpGkdk-0" edge="1">
          <mxGeometry width="50" height="50" relative="1" as="geometry">
            <mxPoint x="297.60442911453856" y="315.7336657667138" as="sourcePoint" />
            <mxPoint x="150" y="370.72052401746714" as="targetPoint" />
          </mxGeometry>
        </mxCell>
        <mxCell id="S6vsmFmqJQY59fPpGkdk-25" value="" style="endArrow=classic;html=1;rounded=0;dashed=1;" parent="1_0XsinDyx6rq08LRmwD-1" source="S6vsmFmqJQY59fPpGkdk-13" target="S6vsmFmqJQY59fPpGkdk-12" edge="1">
          <mxGeometry width="50" height="50" relative="1" as="geometry">
            <mxPoint x="390" y="410" as="sourcePoint" />
            <mxPoint x="440" y="360" as="targetPoint" />
          </mxGeometry>
        </mxCell>
        <mxCell id="S6vsmFmqJQY59fPpGkdk-27" value="Extends" style="edgeLabel;html=1;align=center;verticalAlign=middle;resizable=0;points=[];rotation=-30;" parent="S6vsmFmqJQY59fPpGkdk-25" vertex="1" connectable="0">
          <mxGeometry x="-0.3622" y="-1" relative="1" as="geometry">
            <mxPoint x="-17" y="6" as="offset" />
          </mxGeometry>
        </mxCell>
        <mxCell id="S6vsmFmqJQY59fPpGkdk-26" value="" style="endArrow=classic;html=1;rounded=0;dashed=1;" parent="1_0XsinDyx6rq08LRmwD-1" source="S6vsmFmqJQY59fPpGkdk-14" target="S6vsmFmqJQY59fPpGkdk-12" edge="1">
          <mxGeometry width="50" height="50" relative="1" as="geometry">
            <mxPoint x="547.1904619718355" y="357.97364083711113" as="sourcePoint" />
            <mxPoint x="422.82238655144283" y="412.03374497763343" as="targetPoint" />
          </mxGeometry>
        </mxCell>
        <mxCell id="S6vsmFmqJQY59fPpGkdk-28" value="Extends" style="edgeLabel;html=1;align=center;verticalAlign=middle;resizable=0;points=[];rotation=0;" parent="1_0XsinDyx6rq08LRmwD-1" vertex="1" connectable="0">
          <mxGeometry x="479.996299978253" y="439.9982991777061" as="geometry" />
        </mxCell>
      </root>
    </mxGraphModel>
  </diagram>
  <diagram id="mO8XG7aOiGfYFv8kxC-y" name="Diagrama caso de uso gestion usuario">
    <mxGraphModel dx="880" dy="476" grid="1" gridSize="10" guides="1" tooltips="1" connect="1" arrows="1" fold="1" page="1" pageScale="1" pageWidth="827" pageHeight="1169" math="0" shadow="0">
      <root>
        <mxCell id="z9F5CMZ9ptng7onSX9sT-0" />
        <mxCell id="z9F5CMZ9ptng7onSX9sT-1" parent="z9F5CMZ9ptng7onSX9sT-0" />
        <mxCell id="U3dh9rVCj-rQCvyNJ90w-0" value="Psicólogo" style="shape=umlActor;verticalLabelPosition=bottom;verticalAlign=top;html=1;outlineConnect=0;direction=east;" parent="z9F5CMZ9ptng7onSX9sT-1" vertex="1">
          <mxGeometry x="90" y="330" width="50" height="80" as="geometry" />
        </mxCell>
        <mxCell id="U3dh9rVCj-rQCvyNJ90w-1" value="Diagrama caso de uso Gestionar Consulta" style="text;strokeColor=none;fillColor=none;html=1;fontSize=24;fontStyle=1;verticalAlign=middle;align=center;" parent="z9F5CMZ9ptng7onSX9sT-1" vertex="1">
          <mxGeometry x="423" y="110" width="100" height="40" as="geometry" />
        </mxCell>
        <mxCell id="U3dh9rVCj-rQCvyNJ90w-2" value="Inspirar" style="shape=umlFrame;whiteSpace=wrap;html=1;" parent="z9F5CMZ9ptng7onSX9sT-1" vertex="1">
          <mxGeometry x="200" y="190" width="546" height="360" as="geometry" />
        </mxCell>
        <mxCell id="U3dh9rVCj-rQCvyNJ90w-3" value="Registrar Consulta" style="ellipse;whiteSpace=wrap;html=1;" parent="z9F5CMZ9ptng7onSX9sT-1" vertex="1">
          <mxGeometry x="290" y="250" width="140" height="70" as="geometry" />
        </mxCell>
        <mxCell id="U3dh9rVCj-rQCvyNJ90w-4" value="Visualizar Consulta" style="ellipse;whiteSpace=wrap;html=1;" parent="z9F5CMZ9ptng7onSX9sT-1" vertex="1">
          <mxGeometry x="290" y="390" width="140" height="70" as="geometry" />
        </mxCell>
        <mxCell id="U3dh9rVCj-rQCvyNJ90w-5" value="Consultar historia Clinica" style="ellipse;whiteSpace=wrap;html=1;" parent="z9F5CMZ9ptng7onSX9sT-1" vertex="1">
          <mxGeometry x="550" y="390" width="140" height="70" as="geometry" />
        </mxCell>
        <mxCell id="U3dh9rVCj-rQCvyNJ90w-7" value="" style="endArrow=none;html=1;rounded=0;" parent="z9F5CMZ9ptng7onSX9sT-1" source="U3dh9rVCj-rQCvyNJ90w-3" target="U3dh9rVCj-rQCvyNJ90w-0" edge="1">
          <mxGeometry width="50" height="50" relative="1" as="geometry">
            <mxPoint x="390" y="410" as="sourcePoint" />
            <mxPoint x="440" y="360" as="targetPoint" />
          </mxGeometry>
        </mxCell>
        <mxCell id="U3dh9rVCj-rQCvyNJ90w-8" value="" style="endArrow=none;html=1;rounded=0;" parent="z9F5CMZ9ptng7onSX9sT-1" source="U3dh9rVCj-rQCvyNJ90w-4" target="U3dh9rVCj-rQCvyNJ90w-0" edge="1">
          <mxGeometry width="50" height="50" relative="1" as="geometry">
            <mxPoint x="297.60442911453856" y="315.7336657667138" as="sourcePoint" />
            <mxPoint x="150" y="370.72052401746714" as="targetPoint" />
          </mxGeometry>
        </mxCell>
        <mxCell id="U3dh9rVCj-rQCvyNJ90w-9" value="" style="endArrow=classic;html=1;rounded=0;dashed=1;" parent="z9F5CMZ9ptng7onSX9sT-1" source="U3dh9rVCj-rQCvyNJ90w-5" target="U3dh9rVCj-rQCvyNJ90w-4" edge="1">
          <mxGeometry width="50" height="50" relative="1" as="geometry">
            <mxPoint x="390" y="410" as="sourcePoint" />
            <mxPoint x="440" y="360" as="targetPoint" />
          </mxGeometry>
        </mxCell>
        <mxCell id="U3dh9rVCj-rQCvyNJ90w-10" value="Extends" style="edgeLabel;html=1;align=center;verticalAlign=middle;resizable=0;points=[];rotation=0;" parent="U3dh9rVCj-rQCvyNJ90w-9" vertex="1" connectable="0">
          <mxGeometry x="-0.3622" y="-1" relative="1" as="geometry">
            <mxPoint x="-17" y="1" as="offset" />
          </mxGeometry>
        </mxCell>
      </root>
    </mxGraphModel>
  </diagram>
  <diagram id="C8bxmIQV-uo6SSZ7gMIW" name="diagrama de clases">
    <mxGraphModel dx="1707" dy="1645" grid="1" gridSize="10" guides="1" tooltips="1" connect="1" arrows="1" fold="1" page="1" pageScale="1" pageWidth="827" pageHeight="1169" math="0" shadow="0">
      <root>
        <mxCell id="0E0SBSzSTfMB75aP3sV3-0" />
        <mxCell id="0E0SBSzSTfMB75aP3sV3-1" parent="0E0SBSzSTfMB75aP3sV3-0" />
        <mxCell id="bH4KUCNGKRgARKnUCRlp-4" value="Usuario" style="swimlane;fontStyle=1;align=center;verticalAlign=top;childLayout=stackLayout;horizontal=1;startSize=26;horizontalStack=0;resizeParent=1;resizeParentMax=0;resizeLast=0;collapsible=1;marginBottom=0;fontSize=11;html=1;" parent="0E0SBSzSTfMB75aP3sV3-1" vertex="1">
          <mxGeometry x="-270" y="20" width="160" height="372" as="geometry" />
        </mxCell>
        <mxCell id="bH4KUCNGKRgARKnUCRlp-5" value="- id_usuario:String" style="text;strokeColor=none;fillColor=none;align=left;verticalAlign=top;spacingLeft=4;spacingRight=4;overflow=hidden;rotatable=0;points=[[0,0.5],[1,0.5]];portConstraint=eastwest;fontSize=11;html=1;" parent="bH4KUCNGKRgARKnUCRlp-4" vertex="1">
          <mxGeometry y="26" width="160" height="26" as="geometry" />
        </mxCell>
        <mxCell id="SIrVhajcQOhxzhvScOKI-36" value="-nombres_usuario:String" style="text;strokeColor=none;fillColor=none;align=left;verticalAlign=top;spacingLeft=4;spacingRight=4;overflow=hidden;rotatable=0;points=[[0,0.5],[1,0.5]];portConstraint=eastwest;fontSize=11;html=1;" parent="bH4KUCNGKRgARKnUCRlp-4" vertex="1">
          <mxGeometry y="52" width="160" height="26" as="geometry" />
        </mxCell>
        <mxCell id="SIrVhajcQOhxzhvScOKI-35" value="-apellidos_usuario:String" style="text;strokeColor=none;fillColor=none;align=left;verticalAlign=top;spacingLeft=4;spacingRight=4;overflow=hidden;rotatable=0;points=[[0,0.5],[1,0.5]];portConstraint=eastwest;fontSize=11;html=1;" parent="bH4KUCNGKRgARKnUCRlp-4" vertex="1">
          <mxGeometry y="78" width="160" height="26" as="geometry" />
        </mxCell>
        <mxCell id="SIrVhajcQOhxzhvScOKI-34" value="-login_usuario:String" style="text;strokeColor=none;fillColor=none;align=left;verticalAlign=top;spacingLeft=4;spacingRight=4;overflow=hidden;rotatable=0;points=[[0,0.5],[1,0.5]];portConstraint=eastwest;fontSize=11;html=1;" parent="bH4KUCNGKRgARKnUCRlp-4" vertex="1">
          <mxGeometry y="104" width="160" height="26" as="geometry" />
        </mxCell>
        <mxCell id="SIrVhajcQOhxzhvScOKI-33" value="-password_usuario:String" style="text;strokeColor=none;fillColor=none;align=left;verticalAlign=top;spacingLeft=4;spacingRight=4;overflow=hidden;rotatable=0;points=[[0,0.5],[1,0.5]];portConstraint=eastwest;fontSize=11;html=1;" parent="bH4KUCNGKRgARKnUCRlp-4" vertex="1">
          <mxGeometry y="130" width="160" height="26" as="geometry" />
        </mxCell>
        <mxCell id="SIrVhajcQOhxzhvScOKI-32" value="-correo_usuario:String" style="text;strokeColor=none;fillColor=none;align=left;verticalAlign=top;spacingLeft=4;spacingRight=4;overflow=hidden;rotatable=0;points=[[0,0.5],[1,0.5]];portConstraint=eastwest;fontSize=11;html=1;" parent="bH4KUCNGKRgARKnUCRlp-4" vertex="1">
          <mxGeometry y="156" width="160" height="26" as="geometry" />
        </mxCell>
        <mxCell id="SIrVhajcQOhxzhvScOKI-31" value="-tarjetaProf_usuario:String" style="text;strokeColor=none;fillColor=none;align=left;verticalAlign=top;spacingLeft=4;spacingRight=4;overflow=hidden;rotatable=0;points=[[0,0.5],[1,0.5]];portConstraint=eastwest;fontSize=11;html=1;" parent="bH4KUCNGKRgARKnUCRlp-4" vertex="1">
          <mxGeometry y="182" width="160" height="26" as="geometry" />
        </mxCell>
        <mxCell id="SIrVhajcQOhxzhvScOKI-30" value="-reTHUS_usuario:String" style="text;strokeColor=none;fillColor=none;align=left;verticalAlign=top;spacingLeft=4;spacingRight=4;overflow=hidden;rotatable=0;points=[[0,0.5],[1,0.5]];portConstraint=eastwest;fontSize=11;html=1;" parent="bH4KUCNGKRgARKnUCRlp-4" vertex="1">
          <mxGeometry y="208" width="160" height="26" as="geometry" />
        </mxCell>
        <mxCell id="SIrVhajcQOhxzhvScOKI-29" value="-idTelefono:Telefono" style="text;strokeColor=none;fillColor=none;align=left;verticalAlign=top;spacingLeft=4;spacingRight=4;overflow=hidden;rotatable=0;points=[[0,0.5],[1,0.5]];portConstraint=eastwest;fontSize=11;html=1;" parent="bH4KUCNGKRgARKnUCRlp-4" vertex="1">
          <mxGeometry y="234" width="160" height="26" as="geometry" />
        </mxCell>
        <mxCell id="bH4KUCNGKRgARKnUCRlp-6" value="" style="line;strokeWidth=1;fillColor=none;align=left;verticalAlign=middle;spacingTop=-1;spacingLeft=3;spacingRight=3;rotatable=0;labelPosition=right;points=[];portConstraint=eastwest;fontSize=11;html=1;" parent="bH4KUCNGKRgARKnUCRlp-4" vertex="1">
          <mxGeometry y="260" width="160" height="8" as="geometry" />
        </mxCell>
        <mxCell id="bH4KUCNGKRgARKnUCRlp-7" value="&lt;div&gt;+registrarUsuario()&lt;/div&gt;" style="text;strokeColor=none;fillColor=none;align=left;verticalAlign=top;spacingLeft=4;spacingRight=4;overflow=hidden;rotatable=0;points=[[0,0.5],[1,0.5]];portConstraint=eastwest;fontSize=11;html=1;" parent="bH4KUCNGKRgARKnUCRlp-4" vertex="1">
          <mxGeometry y="268" width="160" height="26" as="geometry" />
        </mxCell>
        <mxCell id="oipJMhvgSNI4z192iVf6-2" value="+consultarUsuario()" style="text;strokeColor=none;fillColor=none;align=left;verticalAlign=top;spacingLeft=4;spacingRight=4;overflow=hidden;rotatable=0;points=[[0,0.5],[1,0.5]];portConstraint=eastwest;fontSize=11;html=1;" parent="bH4KUCNGKRgARKnUCRlp-4" vertex="1">
          <mxGeometry y="294" width="160" height="26" as="geometry" />
        </mxCell>
        <mxCell id="oipJMhvgSNI4z192iVf6-1" value="+modificarUsuario()" style="text;strokeColor=none;fillColor=none;align=left;verticalAlign=top;spacingLeft=4;spacingRight=4;overflow=hidden;rotatable=0;points=[[0,0.5],[1,0.5]];portConstraint=eastwest;fontSize=11;html=1;" parent="bH4KUCNGKRgARKnUCRlp-4" vertex="1">
          <mxGeometry y="320" width="160" height="26" as="geometry" />
        </mxCell>
        <mxCell id="oipJMhvgSNI4z192iVf6-3" value="+inactivarUsuario()" style="text;strokeColor=none;fillColor=none;align=left;verticalAlign=top;spacingLeft=4;spacingRight=4;overflow=hidden;rotatable=0;points=[[0,0.5],[1,0.5]];portConstraint=eastwest;fontSize=11;html=1;" parent="bH4KUCNGKRgARKnUCRlp-4" vertex="1">
          <mxGeometry y="346" width="160" height="26" as="geometry" />
        </mxCell>
        <mxCell id="SIrVhajcQOhxzhvScOKI-0" value="Rol" style="swimlane;fontStyle=1;align=center;verticalAlign=top;childLayout=stackLayout;horizontal=1;startSize=26;horizontalStack=0;resizeParent=1;resizeParentMax=0;resizeLast=0;collapsible=1;marginBottom=0;fontSize=11;html=1;" parent="0E0SBSzSTfMB75aP3sV3-1" vertex="1">
          <mxGeometry x="50" y="-10" width="160" height="190" as="geometry" />
        </mxCell>
        <mxCell id="SIrVhajcQOhxzhvScOKI-1" value="-id_rol" style="text;strokeColor=none;fillColor=none;align=left;verticalAlign=top;spacingLeft=4;spacingRight=4;overflow=hidden;rotatable=0;points=[[0,0.5],[1,0.5]];portConstraint=eastwest;fontSize=11;html=1;" parent="SIrVhajcQOhxzhvScOKI-0" vertex="1">
          <mxGeometry y="26" width="160" height="26" as="geometry" />
        </mxCell>
        <mxCell id="oipJMhvgSNI4z192iVf6-0" value="-tipo_rol" style="text;strokeColor=none;fillColor=none;align=left;verticalAlign=top;spacingLeft=4;spacingRight=4;overflow=hidden;rotatable=0;points=[[0,0.5],[1,0.5]];portConstraint=eastwest;fontSize=11;html=1;" parent="SIrVhajcQOhxzhvScOKI-0" vertex="1">
          <mxGeometry y="52" width="160" height="26" as="geometry" />
        </mxCell>
        <mxCell id="SIrVhajcQOhxzhvScOKI-2" value="" style="line;strokeWidth=1;fillColor=none;align=left;verticalAlign=middle;spacingTop=-1;spacingLeft=3;spacingRight=3;rotatable=0;labelPosition=right;points=[];portConstraint=eastwest;fontSize=11;html=1;" parent="SIrVhajcQOhxzhvScOKI-0" vertex="1">
          <mxGeometry y="78" width="160" height="8" as="geometry" />
        </mxCell>
        <mxCell id="SIrVhajcQOhxzhvScOKI-3" value="&lt;div&gt;+registrarRol()&lt;/div&gt;" style="text;strokeColor=none;fillColor=none;align=left;verticalAlign=top;spacingLeft=4;spacingRight=4;overflow=hidden;rotatable=0;points=[[0,0.5],[1,0.5]];portConstraint=eastwest;fontSize=11;html=1;" parent="SIrVhajcQOhxzhvScOKI-0" vertex="1">
          <mxGeometry y="86" width="160" height="26" as="geometry" />
        </mxCell>
        <mxCell id="oipJMhvgSNI4z192iVf6-6" value="+consultarRol()" style="text;strokeColor=none;fillColor=none;align=left;verticalAlign=top;spacingLeft=4;spacingRight=4;overflow=hidden;rotatable=0;points=[[0,0.5],[1,0.5]];portConstraint=eastwest;fontSize=11;html=1;" parent="SIrVhajcQOhxzhvScOKI-0" vertex="1">
          <mxGeometry y="112" width="160" height="26" as="geometry" />
        </mxCell>
        <mxCell id="oipJMhvgSNI4z192iVf6-5" value="+modificarRol()" style="text;strokeColor=none;fillColor=none;align=left;verticalAlign=top;spacingLeft=4;spacingRight=4;overflow=hidden;rotatable=0;points=[[0,0.5],[1,0.5]];portConstraint=eastwest;fontSize=11;html=1;" parent="SIrVhajcQOhxzhvScOKI-0" vertex="1">
          <mxGeometry y="138" width="160" height="26" as="geometry" />
        </mxCell>
        <mxCell id="oipJMhvgSNI4z192iVf6-4" value="+inactivarRol()" style="text;strokeColor=none;fillColor=none;align=left;verticalAlign=top;spacingLeft=4;spacingRight=4;overflow=hidden;rotatable=0;points=[[0,0.5],[1,0.5]];portConstraint=eastwest;fontSize=11;html=1;" parent="SIrVhajcQOhxzhvScOKI-0" vertex="1">
          <mxGeometry y="164" width="160" height="26" as="geometry" />
        </mxCell>
        <mxCell id="SIrVhajcQOhxzhvScOKI-4" value="Fecha" style="swimlane;fontStyle=1;align=center;verticalAlign=top;childLayout=stackLayout;horizontal=1;startSize=26;horizontalStack=0;resizeParent=1;resizeParentMax=0;resizeLast=0;collapsible=1;marginBottom=0;fontSize=11;html=1;" parent="0E0SBSzSTfMB75aP3sV3-1" vertex="1">
          <mxGeometry x="170" y="260" width="160" height="86" as="geometry" />
        </mxCell>
        <mxCell id="SIrVhajcQOhxzhvScOKI-5" value="+ field: type" style="text;strokeColor=none;fillColor=none;align=left;verticalAlign=top;spacingLeft=4;spacingRight=4;overflow=hidden;rotatable=0;points=[[0,0.5],[1,0.5]];portConstraint=eastwest;fontSize=11;html=1;" parent="SIrVhajcQOhxzhvScOKI-4" vertex="1">
          <mxGeometry y="26" width="160" height="26" as="geometry" />
        </mxCell>
        <mxCell id="SIrVhajcQOhxzhvScOKI-6" value="" style="line;strokeWidth=1;fillColor=none;align=left;verticalAlign=middle;spacingTop=-1;spacingLeft=3;spacingRight=3;rotatable=0;labelPosition=right;points=[];portConstraint=eastwest;fontSize=11;html=1;" parent="SIrVhajcQOhxzhvScOKI-4" vertex="1">
          <mxGeometry y="52" width="160" height="8" as="geometry" />
        </mxCell>
        <mxCell id="SIrVhajcQOhxzhvScOKI-7" value="+ method(type): type" style="text;strokeColor=none;fillColor=none;align=left;verticalAlign=top;spacingLeft=4;spacingRight=4;overflow=hidden;rotatable=0;points=[[0,0.5],[1,0.5]];portConstraint=eastwest;fontSize=11;html=1;" parent="SIrVhajcQOhxzhvScOKI-4" vertex="1">
          <mxGeometry y="60" width="160" height="26" as="geometry" />
        </mxCell>
        <mxCell id="SIrVhajcQOhxzhvScOKI-8" value="Consultante" style="swimlane;fontStyle=1;align=center;verticalAlign=top;childLayout=stackLayout;horizontal=1;startSize=26;horizontalStack=0;resizeParent=1;resizeParentMax=0;resizeLast=0;collapsible=1;marginBottom=0;fontSize=11;html=1;" parent="0E0SBSzSTfMB75aP3sV3-1" vertex="1">
          <mxGeometry x="510" y="20" width="160" height="86" as="geometry" />
        </mxCell>
        <mxCell id="SIrVhajcQOhxzhvScOKI-9" value="+ field: type" style="text;strokeColor=none;fillColor=none;align=left;verticalAlign=top;spacingLeft=4;spacingRight=4;overflow=hidden;rotatable=0;points=[[0,0.5],[1,0.5]];portConstraint=eastwest;fontSize=11;html=1;" parent="SIrVhajcQOhxzhvScOKI-8" vertex="1">
          <mxGeometry y="26" width="160" height="26" as="geometry" />
        </mxCell>
        <mxCell id="SIrVhajcQOhxzhvScOKI-10" value="" style="line;strokeWidth=1;fillColor=none;align=left;verticalAlign=middle;spacingTop=-1;spacingLeft=3;spacingRight=3;rotatable=0;labelPosition=right;points=[];portConstraint=eastwest;fontSize=11;html=1;" parent="SIrVhajcQOhxzhvScOKI-8" vertex="1">
          <mxGeometry y="52" width="160" height="8" as="geometry" />
        </mxCell>
        <mxCell id="SIrVhajcQOhxzhvScOKI-11" value="+ method(type): type" style="text;strokeColor=none;fillColor=none;align=left;verticalAlign=top;spacingLeft=4;spacingRight=4;overflow=hidden;rotatable=0;points=[[0,0.5],[1,0.5]];portConstraint=eastwest;fontSize=11;html=1;" parent="SIrVhajcQOhxzhvScOKI-8" vertex="1">
          <mxGeometry y="60" width="160" height="26" as="geometry" />
        </mxCell>
        <mxCell id="SIrVhajcQOhxzhvScOKI-12" value="Telefono" style="swimlane;fontStyle=1;align=center;verticalAlign=top;childLayout=stackLayout;horizontal=1;startSize=26;horizontalStack=0;resizeParent=1;resizeParentMax=0;resizeLast=0;collapsible=1;marginBottom=0;fontSize=11;html=1;" parent="0E0SBSzSTfMB75aP3sV3-1" vertex="1">
          <mxGeometry x="450" y="499" width="160" height="86" as="geometry" />
        </mxCell>
        <mxCell id="SIrVhajcQOhxzhvScOKI-13" value="+ field: type" style="text;strokeColor=none;fillColor=none;align=left;verticalAlign=top;spacingLeft=4;spacingRight=4;overflow=hidden;rotatable=0;points=[[0,0.5],[1,0.5]];portConstraint=eastwest;fontSize=11;html=1;" parent="SIrVhajcQOhxzhvScOKI-12" vertex="1">
          <mxGeometry y="26" width="160" height="26" as="geometry" />
        </mxCell>
        <mxCell id="SIrVhajcQOhxzhvScOKI-14" value="" style="line;strokeWidth=1;fillColor=none;align=left;verticalAlign=middle;spacingTop=-1;spacingLeft=3;spacingRight=3;rotatable=0;labelPosition=right;points=[];portConstraint=eastwest;fontSize=11;html=1;" parent="SIrVhajcQOhxzhvScOKI-12" vertex="1">
          <mxGeometry y="52" width="160" height="8" as="geometry" />
        </mxCell>
        <mxCell id="SIrVhajcQOhxzhvScOKI-15" value="+ method(type): type" style="text;strokeColor=none;fillColor=none;align=left;verticalAlign=top;spacingLeft=4;spacingRight=4;overflow=hidden;rotatable=0;points=[[0,0.5],[1,0.5]];portConstraint=eastwest;fontSize=11;html=1;" parent="SIrVhajcQOhxzhvScOKI-12" vertex="1">
          <mxGeometry y="60" width="160" height="26" as="geometry" />
        </mxCell>
        <mxCell id="SIrVhajcQOhxzhvScOKI-16" value="Consulta" style="swimlane;fontStyle=1;align=center;verticalAlign=top;childLayout=stackLayout;horizontal=1;startSize=26;horizontalStack=0;resizeParent=1;resizeParentMax=0;resizeLast=0;collapsible=1;marginBottom=0;fontSize=11;html=1;" parent="0E0SBSzSTfMB75aP3sV3-1" vertex="1">
          <mxGeometry x="610" y="190" width="160" height="86" as="geometry" />
        </mxCell>
        <mxCell id="SIrVhajcQOhxzhvScOKI-17" value="+ field: type" style="text;strokeColor=none;fillColor=none;align=left;verticalAlign=top;spacingLeft=4;spacingRight=4;overflow=hidden;rotatable=0;points=[[0,0.5],[1,0.5]];portConstraint=eastwest;fontSize=11;html=1;" parent="SIrVhajcQOhxzhvScOKI-16" vertex="1">
          <mxGeometry y="26" width="160" height="26" as="geometry" />
        </mxCell>
        <mxCell id="SIrVhajcQOhxzhvScOKI-18" value="" style="line;strokeWidth=1;fillColor=none;align=left;verticalAlign=middle;spacingTop=-1;spacingLeft=3;spacingRight=3;rotatable=0;labelPosition=right;points=[];portConstraint=eastwest;fontSize=11;html=1;" parent="SIrVhajcQOhxzhvScOKI-16" vertex="1">
          <mxGeometry y="52" width="160" height="8" as="geometry" />
        </mxCell>
        <mxCell id="SIrVhajcQOhxzhvScOKI-19" value="+ method(type): type" style="text;strokeColor=none;fillColor=none;align=left;verticalAlign=top;spacingLeft=4;spacingRight=4;overflow=hidden;rotatable=0;points=[[0,0.5],[1,0.5]];portConstraint=eastwest;fontSize=11;html=1;" parent="SIrVhajcQOhxzhvScOKI-16" vertex="1">
          <mxGeometry y="60" width="160" height="26" as="geometry" />
        </mxCell>
        <mxCell id="SIrVhajcQOhxzhvScOKI-20" value="Direccion" style="swimlane;fontStyle=1;align=center;verticalAlign=top;childLayout=stackLayout;horizontal=1;startSize=26;horizontalStack=0;resizeParent=1;resizeParentMax=0;resizeLast=0;collapsible=1;marginBottom=0;fontSize=11;html=1;" parent="0E0SBSzSTfMB75aP3sV3-1" vertex="1">
          <mxGeometry x="30" y="430" width="160" height="86" as="geometry" />
        </mxCell>
        <mxCell id="SIrVhajcQOhxzhvScOKI-21" value="+ field: type" style="text;strokeColor=none;fillColor=none;align=left;verticalAlign=top;spacingLeft=4;spacingRight=4;overflow=hidden;rotatable=0;points=[[0,0.5],[1,0.5]];portConstraint=eastwest;fontSize=11;html=1;" parent="SIrVhajcQOhxzhvScOKI-20" vertex="1">
          <mxGeometry y="26" width="160" height="26" as="geometry" />
        </mxCell>
        <mxCell id="SIrVhajcQOhxzhvScOKI-22" value="" style="line;strokeWidth=1;fillColor=none;align=left;verticalAlign=middle;spacingTop=-1;spacingLeft=3;spacingRight=3;rotatable=0;labelPosition=right;points=[];portConstraint=eastwest;fontSize=11;html=1;" parent="SIrVhajcQOhxzhvScOKI-20" vertex="1">
          <mxGeometry y="52" width="160" height="8" as="geometry" />
        </mxCell>
        <mxCell id="SIrVhajcQOhxzhvScOKI-23" value="+ method(type): type" style="text;strokeColor=none;fillColor=none;align=left;verticalAlign=top;spacingLeft=4;spacingRight=4;overflow=hidden;rotatable=0;points=[[0,0.5],[1,0.5]];portConstraint=eastwest;fontSize=11;html=1;" parent="SIrVhajcQOhxzhvScOKI-20" vertex="1">
          <mxGeometry y="60" width="160" height="26" as="geometry" />
        </mxCell>
        <mxCell id="SIrVhajcQOhxzhvScOKI-24" value="Eps" style="swimlane;fontStyle=1;align=center;verticalAlign=top;childLayout=stackLayout;horizontal=1;startSize=26;horizontalStack=0;resizeParent=1;resizeParentMax=0;resizeLast=0;collapsible=1;marginBottom=0;fontSize=11;html=1;" parent="0E0SBSzSTfMB75aP3sV3-1" vertex="1">
          <mxGeometry x="490" y="330" width="160" height="86" as="geometry" />
        </mxCell>
        <mxCell id="SIrVhajcQOhxzhvScOKI-25" value="+ field: type" style="text;strokeColor=none;fillColor=none;align=left;verticalAlign=top;spacingLeft=4;spacingRight=4;overflow=hidden;rotatable=0;points=[[0,0.5],[1,0.5]];portConstraint=eastwest;fontSize=11;html=1;" parent="SIrVhajcQOhxzhvScOKI-24" vertex="1">
          <mxGeometry y="26" width="160" height="26" as="geometry" />
        </mxCell>
        <mxCell id="SIrVhajcQOhxzhvScOKI-26" value="" style="line;strokeWidth=1;fillColor=none;align=left;verticalAlign=middle;spacingTop=-1;spacingLeft=3;spacingRight=3;rotatable=0;labelPosition=right;points=[];portConstraint=eastwest;fontSize=11;html=1;" parent="SIrVhajcQOhxzhvScOKI-24" vertex="1">
          <mxGeometry y="52" width="160" height="8" as="geometry" />
        </mxCell>
        <mxCell id="SIrVhajcQOhxzhvScOKI-27" value="+ method(type): type" style="text;strokeColor=none;fillColor=none;align=left;verticalAlign=top;spacingLeft=4;spacingRight=4;overflow=hidden;rotatable=0;points=[[0,0.5],[1,0.5]];portConstraint=eastwest;fontSize=11;html=1;" parent="SIrVhajcQOhxzhvScOKI-24" vertex="1">
          <mxGeometry y="60" width="160" height="26" as="geometry" />
        </mxCell>
      </root>
    </mxGraphModel>
  </diagram>
  <diagram id="pIKcpbJrGLiCJoD9Y7Z8" name="Página-6">
    <mxGraphModel dx="1956" dy="2227" grid="1" gridSize="10" guides="1" tooltips="1" connect="1" arrows="1" fold="1" page="1" pageScale="1" pageWidth="827" pageHeight="1169" math="0" shadow="0">
      <root>
        <mxCell id="0" />
        <mxCell id="1" parent="0" />
        <mxCell id="xDh41kfMuPBUcTdUqmuN-5" value="" style="shape=image;verticalLabelPosition=bottom;labelBackgroundColor=default;verticalAlign=top;aspect=fixed;imageAspect=0;image=https://www.shutterstock.com/image-vector/tree-vector-illustrations-roots-mangrove-600w-1318380719.jpg;clipPath=inset(7% 7.24% 3.33% 7.93%);" vertex="1" parent="1">
          <mxGeometry x="140" y="-148.57" width="655.83" height="717.15" as="geometry" />
        </mxCell>
        <mxCell id="ifqxvdoXmbEq0ecG-W-4-1" value="&lt;b&gt;&lt;font style=&quot;font-size: 18px;&quot;&gt;ARBOL DE PROBLEMAS&lt;/font&gt;&lt;/b&gt;" style="text;html=1;strokeColor=none;fillColor=none;align=center;verticalAlign=middle;whiteSpace=wrap;rounded=0;" parent="1" vertex="1">
          <mxGeometry x="347.92" y="-148.57" width="240" height="30" as="geometry" />
        </mxCell>
        <mxCell id="ifqxvdoXmbEq0ecG-W-4-3" value="Descentralización de la información" style="rounded=1;whiteSpace=wrap;html=1;" parent="1" vertex="1">
          <mxGeometry x="560" y="90" width="160" height="60" as="geometry" />
        </mxCell>
        <mxCell id="ifqxvdoXmbEq0ecG-W-4-4" value="Perdida o alteración de la Información" style="rounded=1;whiteSpace=wrap;html=1;" parent="1" vertex="1">
          <mxGeometry x="200" y="90" width="160" height="60" as="geometry" />
        </mxCell>
        <mxCell id="ifqxvdoXmbEq0ecG-W-4-5" value="Demora en la localización de la información&amp;nbsp;" style="rounded=1;whiteSpace=wrap;html=1;" parent="1" vertex="1">
          <mxGeometry x="480" y="500" width="120" height="60" as="geometry" />
        </mxCell>
        <mxCell id="ifqxvdoXmbEq0ecG-W-4-8" value="Poca confiabilidad por parte del consultante" style="rounded=1;whiteSpace=wrap;html=1;" parent="1" vertex="1">
          <mxGeometry x="160" y="180" width="160" height="60" as="geometry" />
        </mxCell>
        <mxCell id="ifqxvdoXmbEq0ecG-W-4-11" value="No se cuenta con técnicas&amp;nbsp; focalizadas para el almacenar la información" style="rounded=1;whiteSpace=wrap;html=1;" parent="1" vertex="1">
          <mxGeometry x="310" y="500" width="120" height="60" as="geometry" />
        </mxCell>
        <mxCell id="ifqxvdoXmbEq0ecG-W-4-12" value="Manejo único de la información&lt;br&gt;(físico)" style="rounded=1;whiteSpace=wrap;html=1;" parent="1" vertex="1">
          <mxGeometry x="200" y="420" width="120" height="60" as="geometry" />
        </mxCell>
        <mxCell id="ifqxvdoXmbEq0ecG-W-4-13" value="Daños o pérdidas de los soportes en físico, por el uso" style="rounded=1;whiteSpace=wrap;html=1;" parent="1" vertex="1">
          <mxGeometry x="600" y="420" width="120" height="60" as="geometry" />
        </mxCell>
        <mxCell id="ifqxvdoXmbEq0ecG-W-4-14" value="Falta de aplicación de normas legales en cuanto al uso de la información" style="rounded=1;whiteSpace=wrap;html=1;" parent="1" vertex="1">
          <mxGeometry x="380" y="585" width="160" height="60" as="geometry" />
        </mxCell>
        <mxCell id="ifqxvdoXmbEq0ecG-W-4-16" value="Se cuentan con diferentes espacios de almacenamiento, lo cual no focaliza la información" style="rounded=1;whiteSpace=wrap;html=1;" parent="1" vertex="1">
          <mxGeometry x="360" y="10" width="200" height="60" as="geometry" />
        </mxCell>
        <mxCell id="ifqxvdoXmbEq0ecG-W-4-18" style="edgeStyle=orthogonalEdgeStyle;rounded=0;orthogonalLoop=1;jettySize=auto;html=1;" parent="1" target="ifqxvdoXmbEq0ecG-W-4-12" edge="1">
          <mxGeometry relative="1" as="geometry">
            <mxPoint x="370" y="400" as="sourcePoint" />
          </mxGeometry>
        </mxCell>
        <mxCell id="ifqxvdoXmbEq0ecG-W-4-19" style="edgeStyle=orthogonalEdgeStyle;rounded=0;orthogonalLoop=1;jettySize=auto;html=1;entryX=0.5;entryY=0;entryDx=0;entryDy=0;" parent="1" target="ifqxvdoXmbEq0ecG-W-4-13" edge="1">
          <mxGeometry relative="1" as="geometry">
            <mxPoint x="460" y="390" as="sourcePoint" />
            <Array as="points">
              <mxPoint x="460" y="400" />
              <mxPoint x="660" y="400" />
            </Array>
          </mxGeometry>
        </mxCell>
        <mxCell id="ifqxvdoXmbEq0ecG-W-4-20" style="edgeStyle=orthogonalEdgeStyle;rounded=0;orthogonalLoop=1;jettySize=auto;html=1;" parent="1" target="ifqxvdoXmbEq0ecG-W-4-14" edge="1">
          <mxGeometry relative="1" as="geometry">
            <mxPoint x="540" y="400" as="sourcePoint" />
            <Array as="points">
              <mxPoint x="460" y="400" />
            </Array>
          </mxGeometry>
        </mxCell>
        <mxCell id="ifqxvdoXmbEq0ecG-W-4-21" style="edgeStyle=orthogonalEdgeStyle;rounded=0;orthogonalLoop=1;jettySize=auto;html=1;" parent="1" target="ifqxvdoXmbEq0ecG-W-4-11" edge="1">
          <mxGeometry relative="1" as="geometry">
            <mxPoint x="460" y="400" as="sourcePoint" />
            <Array as="points">
              <mxPoint x="370" y="410" />
              <mxPoint x="370" y="410" />
            </Array>
          </mxGeometry>
        </mxCell>
        <mxCell id="ifqxvdoXmbEq0ecG-W-4-22" style="edgeStyle=orthogonalEdgeStyle;rounded=0;orthogonalLoop=1;jettySize=auto;html=1;entryX=0.5;entryY=0.167;entryDx=0;entryDy=0;entryPerimeter=0;exitX=0.5;exitY=1;exitDx=0;exitDy=0;" parent="1" source="ifqxvdoXmbEq0ecG-W-4-17" target="ifqxvdoXmbEq0ecG-W-4-5" edge="1">
          <mxGeometry relative="1" as="geometry">
            <Array as="points">
              <mxPoint x="460" y="400" />
              <mxPoint x="540" y="400" />
            </Array>
            <mxPoint x="460" y="390" as="sourcePoint" />
          </mxGeometry>
        </mxCell>
        <mxCell id="ifqxvdoXmbEq0ecG-W-4-23" style="edgeStyle=orthogonalEdgeStyle;rounded=0;orthogonalLoop=1;jettySize=auto;html=1;" parent="1" target="ifqxvdoXmbEq0ecG-W-4-16" edge="1">
          <mxGeometry relative="1" as="geometry">
            <Array as="points">
              <mxPoint x="460" y="200" />
              <mxPoint x="460" y="200" />
            </Array>
            <mxPoint x="460" y="250" as="sourcePoint" />
          </mxGeometry>
        </mxCell>
        <mxCell id="ifqxvdoXmbEq0ecG-W-4-25" style="edgeStyle=orthogonalEdgeStyle;rounded=0;orthogonalLoop=1;jettySize=auto;html=1;exitX=0.5;exitY=0;exitDx=0;exitDy=0;" parent="1" target="ifqxvdoXmbEq0ecG-W-4-3" edge="1">
          <mxGeometry relative="1" as="geometry">
            <Array as="points">
              <mxPoint x="460" y="130" />
            </Array>
            <mxPoint x="460" y="250" as="sourcePoint" />
          </mxGeometry>
        </mxCell>
        <mxCell id="ifqxvdoXmbEq0ecG-W-4-26" style="edgeStyle=orthogonalEdgeStyle;rounded=0;orthogonalLoop=1;jettySize=auto;html=1;exitX=0.5;exitY=0;exitDx=0;exitDy=0;entryX=1;entryY=0.5;entryDx=0;entryDy=0;" parent="1" target="ifqxvdoXmbEq0ecG-W-4-8" edge="1">
          <mxGeometry relative="1" as="geometry">
            <mxPoint x="460" y="250" as="sourcePoint" />
            <Array as="points">
              <mxPoint x="460" y="210" />
            </Array>
          </mxGeometry>
        </mxCell>
        <mxCell id="ifqxvdoXmbEq0ecG-W-4-27" style="edgeStyle=orthogonalEdgeStyle;rounded=0;orthogonalLoop=1;jettySize=auto;html=1;" parent="1" source="ifqxvdoXmbEq0ecG-W-4-17" target="ifqxvdoXmbEq0ecG-W-4-4" edge="1">
          <mxGeometry relative="1" as="geometry">
            <Array as="points">
              <mxPoint x="460" y="130" />
            </Array>
            <mxPoint x="460" y="250" as="sourcePoint" />
          </mxGeometry>
        </mxCell>
        <mxCell id="ifqxvdoXmbEq0ecG-W-4-17" value="No se cuenta con la administración segura de la información demográfica e historias clínicas de los consultantes&amp;nbsp;" style="rounded=0;whiteSpace=wrap;html=1;" parent="1" vertex="1">
          <mxGeometry x="360" y="300" width="200" height="60" as="geometry" />
        </mxCell>
        <mxCell id="xDh41kfMuPBUcTdUqmuN-1" value="Falta de cumplimiento en la normatividad vigente que pueden generar sanciones." style="rounded=1;whiteSpace=wrap;html=1;" vertex="1" parent="1">
          <mxGeometry x="600" y="180" width="160" height="60" as="geometry" />
        </mxCell>
        <mxCell id="xDh41kfMuPBUcTdUqmuN-6" value="" style="edgeStyle=orthogonalEdgeStyle;rounded=0;orthogonalLoop=1;jettySize=auto;html=1;entryX=0;entryY=0.5;entryDx=0;entryDy=0;endArrow=none;" edge="1" parent="1" target="xDh41kfMuPBUcTdUqmuN-5">
          <mxGeometry relative="1" as="geometry">
            <mxPoint x="460" y="190" as="sourcePoint" />
            <mxPoint x="600" y="210" as="targetPoint" />
            <Array as="points">
              <mxPoint x="460" y="210" />
            </Array>
          </mxGeometry>
        </mxCell>
      </root>
    </mxGraphModel>
  </diagram>
</mxfile>
